<svg width="104" height="100" viewBox="0 0 104 100" fill="none" xmlns="http://www.w3.org/2000/svg">
<path d="M65.7618 1.50864C72.8155 3.57207 78.9261 7.78918 84.5278 12.5465C90.2254 17.3852 95.4269 22.8246 98.7471 29.5217C102.178 36.4412 104.199 44.073 103.985 51.7933C103.768 59.6133 101.563 67.3533 97.5119 74.0458C93.5188 80.6425 87.3021 85.3967 80.9757 89.8057C74.6714 94.1993 68.1534 98.838 60.5318 99.8179C52.9814 100.789 45.6667 97.676 38.4431 95.2741C31.4099 92.9355 24.3788 90.5162 18.5999 85.8753C12.6688 81.112 7.85257 75.0685 4.67634 68.1563C1.43922 61.1116 -0.506359 53.3749 0.114533 45.6469C0.730789 37.9766 4.39887 31.0246 8.19731 24.3324C11.9756 17.6758 15.9065 10.7901 22.2935 6.57191C28.627 2.38891 36.4563 1.56767 43.9955 0.689492C51.2989 -0.161217 58.7048 -0.555764 65.7618 1.50864Z" fill="#BD8737"/>
<path fill-rule="evenodd" clip-rule="evenodd" d="M35 34.4726C35 32.5547 36.546 31 38.4531 31H65.5469C67.454 31 69 32.5547 69 34.4726C69 36.3905 67.454 37.9452 65.5469 37.9452H64.4986C64.5439 38.2464 64.5635 38.5581 64.5558 38.8802C64.4287 44.195 57.0803 48.6524 53.6423 50.45C56.9896 52.1777 64.6189 56.7036 64.7484 62.1198C64.7561 62.4419 64.7364 62.7536 64.6912 63.0548H65.5469C67.454 63.0548 69 64.6095 69 66.5274C69 68.4453 67.454 70 65.5469 70L38.4531 70C36.546 70 35 68.4453 35 66.5274C35 64.6095 36.546 63.0548 38.4531 63.0548H39.5014C39.4561 62.7536 39.4365 62.4419 39.4442 62.1198C39.5713 56.805 46.9197 52.3476 50.3577 50.55C47.0104 48.8223 39.3811 44.2964 39.2516 38.8802C39.2439 38.5581 39.2636 38.2464 39.3088 37.9452H38.4531C36.546 37.9452 35 36.3905 35 34.4726ZM38.4531 32.6027H65.5469C66.5738 32.6027 67.4062 33.4399 67.4062 34.4726C67.4062 35.5053 66.5738 36.3425 65.5469 36.3425H38.4531C37.4262 36.3425 36.5938 35.5053 36.5938 34.4726C36.5938 33.4399 37.4262 32.6027 38.4531 32.6027ZM41.124 63.0548L63.0685 63.0548C63.1337 62.7647 63.1624 62.4657 63.1551 62.1583C63.1252 60.9069 62.5336 59.5952 61.4605 58.256C60.3934 56.9244 58.9454 55.6866 57.4391 54.614C55.9414 53.5475 54.4392 52.6816 53.3064 52.0809C52.8223 51.8242 52.4089 51.6176 52.0963 51.4661C51.7837 51.6176 51.3702 51.8242 50.8861 52.0809C49.7533 52.6816 48.2512 53.5475 46.7535 54.614C45.2472 55.6866 43.7992 56.9244 42.732 58.256C41.6589 59.5952 41.0674 60.9069 41.0375 62.1583C41.0301 62.4657 41.0588 62.7647 41.124 63.0548ZM40.9315 37.9452H62.8759C62.9412 38.2353 62.9699 38.5343 62.9625 38.8417C62.9326 40.0931 62.3411 41.4048 61.268 42.744C60.2008 44.0756 58.7528 45.3134 57.2465 46.386C55.7488 47.4525 54.2467 48.3184 53.1139 48.9191C52.6298 49.1758 52.2163 49.3824 51.9037 49.5339C51.5911 49.3824 51.1777 49.1758 50.6936 48.9191C49.5608 48.3183 48.0586 47.4525 46.5609 46.386C45.0546 45.3134 43.6066 44.0756 42.5395 42.744C41.4664 41.4048 40.8748 40.0931 40.8449 38.8417C40.8376 38.5343 40.8663 38.2353 40.9315 37.9452ZM65.5469 68.3973L38.4531 68.3973C37.4262 68.3973 36.5938 67.5601 36.5938 66.5274C36.5938 65.4947 37.4262 64.6575 38.4531 64.6575L65.5469 64.6575C66.5738 64.6575 67.4062 65.4947 67.4062 66.5274C67.4062 67.5601 66.5738 68.3973 65.5469 68.3973Z" fill="#F5F2EA"/>
</svg>
