<svg width="100" height="100" viewBox="0 0 100 100" fill="none" xmlns="http://www.w3.org/2000/svg">
<path d="M58.8939 1.40898C66.0104 2.88291 72.7291 5.76137 78.6386 9.99167C84.4989 14.1868 89.4226 19.5403 92.9792 25.8088C96.5338 32.074 98.7575 39.0325 99.1948 46.2226C99.6307 53.3877 97.9225 60.408 95.4947 67.1634C93.0142 74.0655 90.2539 81.1402 84.8599 86.1097C79.4614 91.0833 72.0652 92.8755 65.0935 95.1722C57.9904 97.5122 50.8052 100.936 43.4194 99.7614C36.0358 98.5868 30.1611 93.247 24.246 88.6744C18.5402 84.2637 13.2746 79.422 9.3128 73.3959C5.20503 67.1478 1.16082 60.427 0.765864 52.9599C0.372241 45.5182 4.10933 38.6358 7.11347 31.816C10.0458 25.1591 13.14 18.558 18.2154 13.3472C23.43 7.99342 29.6376 3.43275 36.8088 1.32817C43.9623 -0.771224 51.5936 -0.103007 58.8939 1.40898Z" fill="#BD8737"/>
<path d="M46.1706 31C48.7862 31 50.9267 33.1415 50.9267 35.7578C50.9267 37.5566 49.9119 39.1275 48.4299 39.9356L50.4958 45.8087C50.7927 45.7706 51.0956 45.7493 51.4025 45.7493C53.0344 45.7493 54.5376 46.307 55.7426 47.2363L61.6134 41.7646C61.4754 41.3721 61.3905 40.9534 61.3905 40.5155C61.3905 38.4244 63.1053 36.7093 65.1954 36.7093C67.2855 36.7093 69.0004 38.4248 69.0004 40.5155C69.0004 42.6066 67.2856 44.3217 65.1954 44.3217C64.2363 44.3217 63.3552 43.9482 62.6837 43.3553L57.0802 48.5891C57.9896 49.7874 58.5366 51.2724 58.5366 52.8861C58.5366 54.5071 57.9819 55.9997 57.0653 57.198L60.3351 60.4692C61.1778 59.8886 62.1986 59.5473 63.2927 59.5473C66.1708 59.5473 68.5246 61.9018 68.5246 64.7811C68.5246 67.6604 66.1711 70 63.2927 70C60.4147 70 58.0609 67.6604 58.0609 64.7811C58.0609 63.6826 58.3979 62.6523 58.9825 61.8075L55.7276 58.5513C54.5261 59.469 53.0261 60.0084 51.4025 60.0084C49.0072 60.0084 46.8869 58.8227 45.591 57.005L39.408 59.5476C39.4717 59.8565 39.5122 60.172 39.5122 60.4991C39.5122 63.1154 37.3717 65.2569 34.7561 65.2569C32.1405 65.2569 30 63.1154 30 60.4991C30 57.8825 32.1405 55.741 34.7561 55.741C36.3711 55.741 37.8043 56.5522 38.6649 57.793L44.7142 55.3101C44.4362 54.55 44.2683 53.7412 44.2683 52.8866C44.2683 52.4417 44.3088 52.0008 44.3871 51.5782L38.2784 47.4892C37.6762 47.8896 36.9546 48.1285 36.1826 48.1285C34.0926 48.1285 32.3777 46.413 32.3777 44.3223C32.3777 42.2312 34.0925 40.516 36.1826 40.516C38.2728 40.516 39.9876 42.2315 39.9876 44.3223C39.9876 44.9473 39.827 45.5249 39.5566 46.0471L45.026 49.6899C45.7933 48.1641 47.0836 46.9601 48.6674 46.3L46.6165 40.4866C46.4712 40.4998 46.3192 40.5161 46.1706 40.5161C43.555 40.5161 41.4145 38.3746 41.4145 35.7583C41.4145 33.1417 43.555 31.0005 46.1706 31.0005L46.1706 31ZM46.1706 32.9033C44.5834 32.9033 43.3168 34.1703 43.3168 35.7581C43.3168 37.3458 44.5831 38.6128 46.1706 38.6128C47.7578 38.6128 49.0244 37.3458 49.0244 35.7581C49.0244 34.1703 47.7581 32.9033 46.1706 32.9033ZM65.195 38.6129C64.133 38.6129 63.2927 39.4536 63.2927 40.5162C63.2927 41.5785 64.1331 42.4195 65.195 42.4195C66.257 42.4195 67.0973 41.5788 67.0973 40.5162C67.0973 39.4539 66.2569 38.6129 65.195 38.6129ZM36.1828 42.4191C35.1208 42.4191 34.2805 43.2598 34.2805 44.3224C34.2805 45.3847 35.1209 46.2257 36.1828 46.2257C37.2448 46.2257 38.0851 45.385 38.0851 44.3224C38.0851 43.2601 37.2447 42.4191 36.1828 42.4191ZM51.4023 47.638C48.5018 47.638 46.1704 49.9849 46.1704 52.8865C46.1704 55.7884 48.5013 58.1203 51.4023 58.1203C54.3029 58.1203 56.6342 55.7884 56.6342 52.8865C56.6342 49.9846 54.3033 47.638 51.4023 47.638ZM34.756 57.6445C33.1688 57.6445 31.9021 58.9115 31.9021 60.4993C31.9021 62.0871 33.1684 63.354 34.756 63.354C36.3431 63.354 37.6098 62.0871 37.6098 60.4993C37.6098 58.9115 36.3435 57.6445 34.756 57.6445ZM63.2926 61.4359C61.4427 61.4359 59.9634 62.9305 59.9634 64.7814C59.9634 66.6319 61.4427 68.1119 63.2926 68.1119C65.1424 68.1119 66.6217 66.6319 66.6217 64.7814C66.6217 62.9308 65.1424 61.4359 63.2926 61.4359Z" fill="#F5F2EA"/>
</svg>
