<svg width="97" height="100" viewBox="0 0 97 100" fill="none" xmlns="http://www.w3.org/2000/svg">
<path d="M69.2306 5.38847C75.9373 8.49669 82.3736 12.4255 86.9912 18.1978C91.5522 23.8995 93.8226 30.9944 95.4145 38.1203C96.9711 45.0881 96.9827 52.1647 96.1637 59.2571C95.3036 66.7066 94.494 74.3934 90.4938 80.7365C86.397 87.2327 80.1509 92.2034 73.2547 95.5837C66.4357 98.9262 58.7896 99.97 51.1955 99.9994C43.727 100.028 36.2009 99.0147 29.482 95.7534C22.8634 92.5409 17.8222 87.0439 13.0204 81.4699C8.20754 75.883 3.2143 70.1574 1.2979 63.0367C-0.620921 55.9071 0.523085 48.3776 2.17768 41.182C3.79905 34.131 6.93988 27.6728 10.8321 21.5739C14.9076 15.188 18.9781 8.42634 25.52 4.60626C32.1382 0.741593 40.0916 -0.123638 47.7543 0.0134881C55.2264 0.147201 62.4501 2.24608 69.2306 5.38847Z" fill="#BD8737"/>
<path d="M59.5712 48.5C59.5712 54.9224 54.7538 60 48.9642 60C43.1746 60 38.3572 54.9224 38.3572 48.5C38.3572 47.0263 38.9871 45.2484 40.0455 43.3378C41.0927 41.4475 42.5019 39.5285 43.9316 37.7981C45.3583 36.0714 46.7878 34.5535 47.8619 33.4664C48.2964 33.0267 48.6718 32.6584 48.9642 32.3763C49.2566 32.6584 49.632 33.0267 50.0665 33.4664C51.1406 34.5535 52.5701 36.0714 53.9968 37.7981C55.4265 39.5285 56.8357 41.4475 57.8829 43.3378C58.9413 45.2484 59.5712 47.0263 59.5712 48.5Z" stroke="#F5F2EA" stroke-width="2"/>
<path fill-rule="evenodd" clip-rule="evenodd" d="M61.8493 54.9564C61.6595 55.6138 61.4256 56.2509 61.1511 56.8639L61.2284 56.8789L61.3337 56.8979L61.4392 56.9153L61.5449 56.9311L61.6508 56.9453L61.757 56.9579L61.7701 56.9593L61.8632 56.9689L61.8765 56.9702L61.9696 56.9783L61.9831 56.9793L62.0761 56.986L62.0897 56.9868L62.1828 56.992L62.1964 56.9926L62.2895 56.9963L62.3031 56.9968L62.3962 56.999L62.4099 56.9992L62.503 56.9999H62.5167L62.6098 56.9992L62.6235 56.999L62.7166 56.9968L62.7303 56.9963L62.8233 56.9926L62.837 56.992L62.9301 56.9868L62.9436 56.986L63.0367 56.9793L63.0501 56.9783L63.1432 56.9702L63.1565 56.9689L63.2496 56.9593L63.2628 56.9579L63.3559 56.947L63.462 56.9329L63.5679 56.9172L63.6736 56.9L63.7791 56.8812L63.8844 56.8609L63.9895 56.8391L64.0943 56.8158L64.1988 56.7912L64.303 56.7651L64.407 56.7377L64.5106 56.7089L64.6139 56.6789L64.717 56.6477L64.8197 56.6152L64.922 56.5816L65.0241 56.5469L65.1258 56.5111L65.2272 56.4743L65.3282 56.4365L65.4289 56.3978L65.5292 56.3582L65.6293 56.3177L65.7289 56.2765L65.7352 56.2738L65.8282 56.2345L65.8341 56.2319L65.9272 56.1918L65.9328 56.1893L66.0259 56.1484L66.0311 56.1461L66.1242 56.1044L66.1291 56.1022L66.2222 56.0599L66.2267 56.0579L66.3198 56.0149L66.324 56.0129L66.4171 55.9694L66.421 55.9676L66.5141 55.9235L66.5176 55.9218L66.6107 55.8772L66.614 55.8757L66.707 55.8306L66.7099 55.8292L66.803 55.7838L66.8056 55.7825L66.8987 55.7367L66.9009 55.7356L66.994 55.6894L67.0906 55.6413L67.1837 55.5946L67.2794 55.5465L67.4655 55.4524C67.9298 55.2179 68.1297 54.6224 67.9119 54.1224C67.6941 53.6224 67.1412 53.4072 66.6769 53.6417L66.492 53.7351L66.3989 53.782L66.3087 53.8272L66.2156 53.8736L66.1267 53.9177L66.1244 53.9188L66.0362 53.9622L66.0336 53.9635L65.946 54.0063L65.9431 54.0077L65.8561 54.0498L65.8529 54.0513L65.7666 54.0927L65.763 54.0944L65.6774 54.1349L65.6735 54.1367L65.5885 54.1765L65.5843 54.1785L65.5 54.2174L65.4954 54.2194L65.4118 54.2575L65.4069 54.2597L65.3239 54.2968L65.3187 54.2991L65.2364 54.3353L65.2308 54.3377L65.1492 54.373L65.1433 54.3755L65.0623 54.4097L65.0561 54.4123L64.9758 54.4456L64.9692 54.4483L64.8897 54.4805L64.8827 54.4833L64.8038 54.5145L64.7966 54.5173L64.7184 54.5474L64.7107 54.5503L64.6332 54.5793L64.6253 54.5822L64.5484 54.6102L64.5401 54.6132L64.4639 54.64L64.4553 54.643L64.3798 54.6687L64.3708 54.6717L64.296 54.6963L64.2867 54.6993L64.2125 54.7228L64.2029 54.7258L64.1244 54.7496L64.0414 54.7737L63.9587 54.7967L63.8763 54.8185L63.7943 54.8391L63.7124 54.8585L63.6309 54.8766L63.5497 54.8936L63.4686 54.9093L63.3878 54.9237L63.3073 54.9369L63.227 54.9489L63.1468 54.9596L63.0668 54.969L62.9869 54.9772L62.9072 54.9842L62.8276 54.9898L62.7481 54.9943L62.6687 54.9974L62.5892 54.9993L62.5099 54.9999L62.4305 54.9993L62.3511 54.9974L62.2716 54.9943L62.1921 54.9898L62.1125 54.9842L62.0328 54.9772L61.9529 54.969L61.873 54.9596L61.8493 54.9564ZM35.874 54.1625L35.8676 54.1608L35.7858 54.1415L35.7043 54.1233L35.623 54.1064L35.542 54.0907L35.4612 54.0762L35.3807 54.063L35.3003 54.0511L35.2201 54.0404L35.1401 54.0309L35.0603 54.0227L34.9806 54.0158L34.901 54.0101L34.8215 54.0057L34.742 54.0025L34.6626 54.0006L34.5832 54L34.5038 54.0006L34.4244 54.0025L34.345 54.0057L34.2655 54.0101L34.1859 54.0158L34.1061 54.0227L34.0263 54.0309L33.9463 54.0404L33.8661 54.0511L33.7858 54.063L33.7052 54.0762L33.6245 54.0907L33.5434 54.1064L33.4622 54.1233L33.3806 54.1415L33.2988 54.1608L33.2168 54.1814L33.1344 54.2032L33.0517 54.2262L32.9687 54.2504L32.8854 54.2757L32.8017 54.3022L32.7178 54.3298L32.6335 54.3585L32.5488 54.3883L32.4639 54.4192L32.3786 54.4511L32.2929 54.4841L32.2069 54.5181L32.1206 54.553L32.0339 54.5889L31.9469 54.6257L31.8595 54.6634L31.7718 54.702L31.6838 54.7414L31.5954 54.7816L31.5067 54.8225L31.4177 54.8641L31.3283 54.9064L31.2386 54.9494L31.1486 54.9929L31.0582 55.0371L30.9686 55.0812L30.9664 55.0823L30.8775 55.1263L30.8756 55.1273L30.7844 55.1728L30.3233 55.4052C29.8591 55.6399 29.3061 55.4248 29.0882 54.9249C28.8703 54.4249 29.07 53.8294 29.5342 53.5947L29.815 53.4528L29.9094 53.4053L30.0041 53.3579L30.0991 53.3105L30.1944 53.2632L30.2901 53.2162L30.386 53.1693L30.4824 53.1227L30.579 53.0764L30.676 53.0305L30.7733 52.985L30.8709 52.94L30.9689 52.8955L31.0672 52.8515L31.1658 52.8082L31.2648 52.7655L31.3642 52.7235L31.4638 52.6822L31.5638 52.6418L31.6642 52.6021L31.7649 52.5634L31.8659 52.5256L31.9673 52.4888L32.069 52.453L32.1711 52.4183L32.2734 52.3847L32.3761 52.3523L32.4792 52.321L32.5825 52.291L32.6861 52.2623L32.7901 52.2349L32.8943 52.2088L32.9988 52.1841L33.1036 52.1608L33.2087 52.1391L33.314 52.1187L33.4195 52.1L33.5252 52.0827L33.6311 52.067L33.7372 52.053L33.8303 52.0421L33.8435 52.0406L33.9366 52.0311L33.9499 52.0298L34.043 52.0217L34.0564 52.0206L34.1495 52.014L34.163 52.0131L34.2561 52.008L34.2697 52.0073L34.3628 52.0036L34.3765 52.0032L34.4696 52.001L34.4833 52.0007L34.5764 52H34.5901L34.6832 52.0007L34.6969 52.001L34.79 52.0032L34.8036 52.0036L34.8967 52.0073L34.9103 52.008L35.0034 52.0131L35.0169 52.014L35.11 52.0206L35.1235 52.0217L35.2165 52.0298L35.2299 52.0311L35.323 52.0406L35.3361 52.0421L35.4422 52.0546L35.5482 52.0689L35.5507 52.0692C35.6094 52.7834 35.7184 53.4825 35.874 54.1625ZM38.8765 60.2162C40.2626 61.8648 42.0081 63.1711 43.984 63.9993L43.899 63.9999H43.8852L43.7922 63.9992L43.7785 63.999L43.6854 63.9968L43.6717 63.9963L43.5786 63.9926L43.565 63.992L43.4719 63.9868L43.4584 63.986L43.3653 63.9793L43.3519 63.9783L43.2588 63.9702L43.2455 63.9689L43.1524 63.9593L43.1392 63.9579L43.0331 63.9453L42.9272 63.9311L42.8214 63.9153L42.7159 63.8979L42.6106 63.8789L42.5056 63.8585L42.4008 63.8366L42.2963 63.8132L42.1921 63.7884L42.0881 63.7623L41.9845 63.7348L41.8811 63.706L41.7781 63.676L41.6754 63.6447L41.573 63.6122L41.471 63.5786L41.3693 63.5439L41.2679 63.5082L41.1669 63.4714L41.0662 63.4336L40.9658 63.395L40.8658 63.3554L40.7661 63.315L40.6668 63.2739L40.5678 63.232L40.4692 63.1894L40.3709 63.1461L40.2729 63.1023L40.1752 63.0579L40.0779 63.0129L39.981 62.9676L39.8843 62.9218L39.7912 62.8772L39.788 62.8757L39.6949 62.8306L39.692 62.8292L39.5989 62.7838L39.5964 62.7825L39.5033 62.7367L39.501 62.7356L39.408 62.6894L39.406 62.6885L39.3129 62.6421L39.1239 62.5471L38.4723 62.218L38.3821 62.1728L38.2909 62.1273L38.289 62.1263L38.2 62.0823L38.1978 62.0812L38.1095 62.0377L38.107 62.0364L38.0193 61.9937L38.0164 61.9923L37.9295 61.9502L37.9262 61.9486L37.8399 61.9073L37.8364 61.9056L37.7507 61.865L37.7468 61.8632L37.6619 61.8235L37.6576 61.8215L37.5733 61.7826L37.5688 61.7805L37.4827 61.7414L37.3946 61.702L37.3069 61.6634L37.2196 61.6257L37.1326 61.5889L37.0459 61.553L36.9595 61.5181L36.8736 61.4841L36.7879 61.4511L36.7025 61.4192L36.6176 61.3883L36.533 61.3585L36.4487 61.3298L36.3646 61.3021L36.2811 61.2757L36.1978 61.2504L36.1147 61.2262L36.0321 61.2032L35.9496 61.1814L35.8676 61.1608L35.7858 61.1415L35.7043 61.1233L35.623 61.1064L35.542 61.0907L35.4612 61.0762L35.3807 61.063L35.3003 61.0511L35.2202 61.0404L35.1401 61.0309L35.0603 61.0227L34.9806 61.0158L34.9009 61.0101L34.8215 61.0057L34.742 61.0025L34.6626 61.0006L34.5832 61L34.5039 61.0006L34.4244 61.0025L34.345 61.0057L34.2655 61.0101L34.1859 61.0158L34.1062 61.0227L34.0263 61.0309L33.9463 61.0404L33.8661 61.0511L33.7858 61.063L33.7053 61.0762L33.6245 61.0907L33.5434 61.1064L33.4622 61.1233L33.3807 61.1415L33.2989 61.1608L33.2167 61.1814L33.1344 61.2032L33.0517 61.2262L32.9687 61.2504L32.8854 61.2757L32.8017 61.3022L32.7177 61.3298L32.6335 61.3585L32.5489 61.3883L32.4639 61.4192L32.3786 61.4511L32.2929 61.4841L32.2069 61.5181L32.1205 61.553L32.034 61.5889L31.9468 61.6257L31.8595 61.6635L31.7718 61.702L31.6837 61.7414L31.5977 61.7805L31.5931 61.7826L31.5088 61.8215L31.5046 61.8235L31.4196 61.8632L31.4157 61.865L31.3301 61.9056L31.3265 61.9073L31.2402 61.9486L31.237 61.9502L31.15 61.9922L31.1471 61.9937L31.0595 62.0364L31.0569 62.0377L30.9686 62.0812L30.9664 62.0823L30.8756 62.1273L30.786 62.172L30.6929 62.2186L30.6026 62.2641L30.3233 62.4052C29.8591 62.6399 29.3061 62.4248 29.0882 61.9249C28.8703 61.4249 29.07 60.8294 29.5342 60.5947L30.0971 60.3115L30.0991 60.3105L30.1944 60.2632L30.2901 60.2162L30.386 60.1693L30.4824 60.1227L30.579 60.0764L30.676 60.0305L30.7733 59.985L30.8709 59.94L30.9689 59.8955L31.0672 59.8515L31.1658 59.8082L31.2648 59.7655L31.3642 59.7235L31.4638 59.6822L31.5638 59.6418L31.6642 59.6021L31.7649 59.5634L31.8659 59.5256L31.9673 59.4888L32.069 59.453L32.1711 59.4183L32.2734 59.3847L32.3761 59.3523L32.4792 59.321L32.5825 59.291L32.6861 59.2623L32.7901 59.2349L32.8943 59.2088L32.9988 59.1841L33.1036 59.1608L33.2087 59.1391L33.314 59.1187L33.4195 59.1L33.5252 59.0827L33.6311 59.067L33.7372 59.053L33.8303 59.0421L33.8435 59.0406L33.9366 59.0311L33.9499 59.0298L34.043 59.0217L34.0564 59.0206L34.1495 59.014L34.163 59.0131L34.2561 59.008L34.2697 59.0073L34.3628 59.0036L34.3765 59.0032L34.4696 59.001L34.4833 59.0007L34.5764 59H34.5901L34.6832 59.0007L34.6969 59.001L34.79 59.0032L34.8036 59.0036L34.8967 59.0073L34.9103 59.008L35.0034 59.0131L35.0169 59.014L35.11 59.0206L35.1235 59.0217L35.2165 59.0298L35.2299 59.0311L35.323 59.0406L35.3361 59.0421L35.4422 59.0546L35.5482 59.0689L35.6539 59.0847L35.7594 59.1021L35.8647 59.121L35.9697 59.1415L36.0745 59.1634L36.179 59.1867L36.2833 59.2115L36.3872 59.2376L36.4909 59.2651L36.5942 59.2939L36.6972 59.324L36.7999 59.3553L36.9023 59.3877L37.0043 59.4213L37.1061 59.456L37.2074 59.4918L37.3085 59.5286L37.4092 59.5663L37.5095 59.605L37.6095 59.6445L37.7092 59.6849L37.8085 59.7261L37.9075 59.768L38.0062 59.8106L38.1045 59.8538L38.2024 59.8977L38.3001 59.9421L38.3974 59.987L38.4944 60.0324L38.591 60.0781L38.6873 60.1243L38.7833 60.1707L38.8765 60.2162ZM57.0222 62.184C57.5731 61.7503 58.0914 61.2732 58.5725 60.7576L58.7126 60.828L58.8022 60.8727L58.893 60.9177L58.8953 60.9188L58.9836 60.9622L58.9861 60.9635L59.0738 61.0063L59.0766 61.0077L59.1636 61.0498L59.1668 61.0513L59.2532 61.0927L59.2567 61.0944L59.3424 61.1349L59.3462 61.1367L59.4312 61.1765L59.4355 61.1785L59.5198 61.2174L59.5243 61.2194L59.608 61.2575L59.6129 61.2597L59.6958 61.2968L59.7011 61.2991L59.7834 61.3353L59.7889 61.3377L59.8706 61.373L59.8765 61.3755L59.9574 61.4097L59.9636 61.4123L60.0439 61.4456L60.0505 61.4483L60.1301 61.4805L60.137 61.4833L60.2159 61.5145L60.2232 61.5173L60.3014 61.5474L60.309 61.5503L60.3865 61.5793L60.3945 61.5822L60.4713 61.6102L60.4796 61.6132L60.5558 61.64L60.5644 61.643L60.6399 61.6687L60.6489 61.6717L60.7237 61.6963L60.733 61.6993L60.8072 61.7228L60.8168 61.7258L60.8954 61.7496L60.9782 61.7737L61.0611 61.7967L61.1434 61.8185L61.2255 61.8391L61.3073 61.8585L61.3888 61.8766L61.4701 61.8936L61.5511 61.9093L61.6319 61.9237L61.7124 61.9369L61.7928 61.9489L61.8729 61.9596L61.9529 61.969L62.0328 61.9772L62.1125 61.9842L62.1921 61.9898L62.2717 61.9943L62.3511 61.9974L62.4305 61.9993L62.5099 61.9999L62.5892 61.9993L62.6687 61.9974L62.7481 61.9943L62.8276 61.9899L62.9072 61.9842L62.987 61.9772L63.0668 61.969L63.1468 61.9596L63.2269 61.9489L63.3073 61.9369L63.3878 61.9237L63.4686 61.9093L63.5497 61.8935L63.6309 61.8766L63.7124 61.8585L63.7943 61.8391L63.8763 61.8185L63.9587 61.7967L64.0415 61.7737L64.1243 61.7496L64.2029 61.7258L64.2125 61.7228L64.2867 61.6993L64.296 61.6963L64.3708 61.6717L64.3798 61.6687L64.4553 61.643L64.4639 61.64L64.5401 61.6132L64.5484 61.6102L64.6253 61.5822L64.6332 61.5793L64.7107 61.5503L64.7184 61.5474L64.7966 61.5173L64.8038 61.5145L64.8827 61.4833L64.8897 61.4805L64.9692 61.4483L64.9758 61.4456L65.0561 61.4123L65.0623 61.4097L65.1433 61.3755L65.1492 61.373L65.2308 61.3377L65.2364 61.3353L65.3187 61.2991L65.3239 61.2968L65.4069 61.2597L65.4118 61.2575L65.4954 61.2194L65.5 61.2174L65.5843 61.1785L65.5885 61.1765L65.6735 61.1367L65.6774 61.1349L65.763 61.0944L65.7666 61.0927L65.8529 61.0513L65.8561 61.0498L65.9431 61.0077L65.946 61.0063L66.0336 60.9635L66.0362 60.9622L66.1244 60.9188L66.1267 60.9177L66.2156 60.8736L66.2175 60.8727L66.3087 60.8272L66.3989 60.782L66.6769 60.6417C67.1412 60.4072 67.6941 60.6224 67.9119 61.1224C68.1297 61.6224 67.9298 62.2179 67.4655 62.4524L67.2794 62.5465L67.1837 62.5946L67.0906 62.6413L66.994 62.6894L66.9009 62.7356L66.8987 62.7367L66.8056 62.7825L66.803 62.7838L66.7099 62.8292L66.707 62.8306L66.614 62.8757L66.6107 62.8772L66.5176 62.9218L66.5141 62.9235L66.421 62.9676L66.4171 62.9694L66.324 63.0129L66.3198 63.0149L66.2267 63.0578L66.2222 63.0599L66.1291 63.1022L66.1242 63.1044L66.0311 63.1461L66.0259 63.1484L65.9328 63.1893L65.9272 63.1918L65.8341 63.2319L65.8282 63.2345L65.7352 63.2738L65.7289 63.2765L65.6293 63.3177L65.5292 63.3582L65.4289 63.3978L65.3282 63.4365L65.2272 63.4743L65.1258 63.5111L65.0241 63.5469L64.922 63.5816L64.8197 63.6152L64.717 63.6477L64.6139 63.6789L64.5106 63.7089L64.407 63.7377L64.303 63.7651L64.1988 63.7912L64.0943 63.8158L63.9895 63.8391L63.8844 63.8609L63.7791 63.8812L63.6736 63.9L63.5679 63.9172L63.462 63.9329L63.3559 63.947L63.2628 63.9579L63.2496 63.9593L63.1565 63.9689L63.1432 63.9702L63.0501 63.9783L63.0367 63.9793L62.9436 63.986L62.9301 63.9868L62.837 63.992L62.8233 63.9926L62.7303 63.9963L62.7166 63.9968L62.6235 63.999L62.6098 63.9992L62.5167 63.9999H62.503L62.4099 63.9992L62.3962 63.999L62.3031 63.9968L62.2895 63.9963L62.1964 63.9926L62.1828 63.992L62.0897 63.9868L62.0761 63.986L61.9831 63.9793L61.9696 63.9783L61.8765 63.9702L61.8632 63.9689L61.7701 63.9593L61.757 63.9579L61.6508 63.9453L61.5449 63.9311L61.4392 63.9153L61.3337 63.8979L61.2284 63.8789L61.1234 63.8585L61.0186 63.8366L60.914 63.8132L60.8098 63.7884L60.7059 63.7623L60.6022 63.7348L60.4989 63.706L60.3959 63.676L60.2932 63.6447L60.1908 63.6122L60.0888 63.5786L59.987 63.5439L59.8857 63.5082L59.7846 63.4714L59.6839 63.4336L59.5836 63.395L59.4836 63.3554L59.3839 63.315L59.2846 63.2739L59.1856 63.232L59.0869 63.1894L58.9886 63.1461L58.8907 63.1023L58.793 63.0579L58.6999 63.0149L58.6957 63.0129L58.6026 62.9694L58.5987 62.9676L58.5057 62.9235L58.5021 62.9218L58.409 62.8772L58.4058 62.8757L58.3127 62.8306L58.3098 62.8292L58.2167 62.7838L58.2141 62.7825L58.1211 62.7367L58.1188 62.7356L58.0257 62.6894L58.0238 62.6885L57.9291 62.6413L57.1816 62.2641L57.0222 62.184ZM34.4244 67.0025L34.5039 67.0006L34.5832 67L34.6626 67.0006L34.742 67.0025L34.8215 67.0057L34.9009 67.0101L34.9806 67.0158L35.0603 67.0227L35.1401 67.0309L35.2202 67.0404L35.3003 67.0511L35.3807 67.063L35.4612 67.0762L35.542 67.0907L35.623 67.1064L35.7043 67.1233L35.7858 67.1415L35.8676 67.1608L35.9496 67.1814L36.0321 67.2032L36.1147 67.2262L36.1978 67.2504L36.2811 67.2757L36.3646 67.3021L36.4487 67.3298L36.533 67.3585L36.6176 67.3883L36.7025 67.4192L36.7879 67.4511L36.8736 67.4841L36.9595 67.5181L37.0459 67.553L37.1326 67.5889L37.2196 67.6257L37.3069 67.6634L37.3946 67.702L37.4827 67.7414L37.5688 67.7805L37.5733 67.7826L37.6576 67.8215L37.6619 67.8235L37.7468 67.8632L37.7507 67.865L37.8364 67.9056L37.8399 67.9073L37.9262 67.9486L37.9295 67.9502L38.0164 67.9923L38.0193 67.9937L38.107 68.0364L38.1095 68.0377L38.1978 68.0812L38.2 68.0823L38.289 68.1263L38.2909 68.1273L38.3821 68.1728L38.4723 68.218L39.1239 68.5471L39.3129 68.6421L39.406 68.6885L39.408 68.6894L39.501 68.7356L39.5033 68.7367L39.5964 68.7825L39.5989 68.7838L39.692 68.8292L39.6949 68.8306L39.788 68.8757L39.7912 68.8772L39.8843 68.9218L39.981 68.9676L40.0779 69.0129L40.0822 69.0149L40.1753 69.0578L40.1798 69.0599L40.2729 69.1023L40.3709 69.1461L40.4692 69.1894L40.5678 69.232L40.6668 69.2739L40.7661 69.315L40.8658 69.3554L40.9658 69.395L41.0662 69.4336L41.1669 69.4714L41.2679 69.5082L41.3693 69.5439L41.471 69.5786L41.573 69.6122L41.6754 69.6447L41.7781 69.676L41.8811 69.706L41.9845 69.7348L42.0881 69.7623L42.1921 69.7884L42.2963 69.8132L42.4008 69.8366L42.5056 69.8585L42.6106 69.8789L42.7159 69.8979L42.8214 69.9153L42.9272 69.9311L43.0331 69.9453L43.1392 69.9579L43.1524 69.9593L43.2455 69.9689L43.2588 69.9702L43.3519 69.9783L43.3653 69.9793L43.4584 69.986L43.4719 69.9868L43.565 69.992L43.5786 69.9926L43.6717 69.9963L43.6854 69.9968L43.7785 69.999L43.7922 69.9992L43.8852 69.9999H43.899L43.992 69.9992L44.0058 69.999L44.0988 69.9968L44.1125 69.9963L44.2056 69.9926L44.2192 69.992L44.3123 69.9868L44.3258 69.986L44.4189 69.9793L44.4323 69.9783L44.5254 69.9702L44.5387 69.9689L44.6318 69.9593L44.645 69.9579L44.7381 69.947L44.8442 69.9329L44.9501 69.9172L45.0559 69.9L45.1614 69.8812L45.2667 69.8609L45.3717 69.8391L45.4765 69.8158L45.581 69.7912L45.6852 69.7651L45.7892 69.7377L45.8928 69.7089L45.9962 69.6789L46.0992 69.6477L46.2019 69.6152L46.3043 69.5816L46.4063 69.5469L46.508 69.5111L46.6094 69.4743L46.7104 69.4365L46.8111 69.3978L46.9115 69.3582L47.0115 69.3177L47.1112 69.2765L47.2105 69.2345L47.3095 69.1918L47.4081 69.1484L47.5064 69.1045L47.6044 69.0599L47.609 69.0578L47.702 69.0149L47.7063 69.0129L47.7993 68.9694L47.8032 68.9676L47.8963 68.9235L47.8999 68.9218L47.993 68.8772L47.9962 68.8757L48.0893 68.8306L48.0922 68.8292L48.1853 68.7838L48.1878 68.7825L48.2809 68.7367L48.2832 68.7356L48.3763 68.6894L48.3782 68.6885L48.4729 68.6413L48.6603 68.5471L49.4022 68.1728L49.4933 68.1273L49.4952 68.1263L49.5842 68.0823L49.5864 68.0812L49.6747 68.0377L49.6772 68.0364L49.7649 67.9937L49.7678 67.9923L49.8547 67.9502L49.858 67.9486L49.9443 67.9073L49.9478 67.9056L50.0335 67.865L50.0374 67.8632L50.1223 67.8235L50.1266 67.8215L50.2109 67.7826L50.2154 67.7805L50.2991 67.7425L50.304 67.7403L50.387 67.7031L50.3922 67.7008L50.4745 67.6646L50.4801 67.6622L50.5617 67.627L50.5676 67.6245L50.6485 67.5902L50.6548 67.5876L50.735 67.5544L50.7416 67.5517L50.8246 67.5181L50.9107 67.4841L50.9963 67.4511L51.0817 67.4192L51.1666 67.3883L51.2513 67.3585L51.3356 67.3298L51.4195 67.3022L51.5031 67.2757L51.5865 67.2503L51.6694 67.2262L51.7521 67.2032L51.8346 67.1814L51.9166 67.1609L51.9984 67.1415L52.0799 67.1233L52.1612 67.1064L52.2422 67.0907L52.323 67.0762L52.4036 67.063L52.4839 67.0511L52.564 67.0404L52.6441 67.0309L52.7239 67.0227L52.8036 67.0158L52.8833 67.0101L52.9627 67.0057L53.0422 67.0025L53.1216 67.0006L53.201 67L53.2803 67.0006L53.3598 67.0025L53.4393 67.0057L53.5187 67.0101L53.5983 67.0158L53.6781 67.0227L53.7579 67.0309L53.8379 67.0404L53.9181 67.0511L53.9984 67.063L54.079 67.0762L54.1598 67.0907L54.2408 67.1064L54.3221 67.1233L54.4035 67.1415L54.4854 67.1609L54.5674 67.1814L54.6499 67.2032L54.7326 67.2262L54.8154 67.2503L54.8989 67.2757L54.9824 67.3021L55.0664 67.3297L55.1508 67.3585L55.2354 67.3883L55.3203 67.4192L55.4057 67.4511L55.4913 67.4841L55.5773 67.5181L55.6604 67.5517L55.6669 67.5544L55.7472 67.5876L55.7534 67.5902L55.8344 67.6245L55.8403 67.627L55.9219 67.6622L55.9275 67.6646L56.0098 67.7008L56.015 67.7031L56.098 67.7403L56.1029 67.7425L56.1865 67.7805L56.1911 67.7826L56.2754 67.8215L56.2796 67.8235L56.3646 67.8632L56.3685 67.865L56.4541 67.9056L56.4577 67.9073L56.544 67.9486L56.5472 67.9502L56.6342 67.9922L56.6371 67.9937L56.7247 68.0364L56.7273 68.0377L56.8156 68.0812L56.8178 68.0823L56.9067 68.1263L56.9087 68.1273L56.9998 68.1728L57.1816 68.2641L57.9291 68.6413L58.0238 68.6885L58.0257 68.6894L58.1188 68.7356L58.1211 68.7367L58.2141 68.7825L58.2167 68.7838L58.3098 68.8292L58.3127 68.8306L58.4058 68.8757L58.409 68.8772L58.5021 68.9218L58.5057 68.9235L58.5987 68.9676L58.6026 68.9694L58.6957 69.0129L58.6999 69.0149L58.793 69.0579L58.8907 69.1023L58.9886 69.1461L59.0869 69.1894L59.1856 69.232L59.2846 69.2739L59.3839 69.315L59.4836 69.3554L59.5836 69.395L59.6839 69.4336L59.7846 69.4714L59.8857 69.5082L59.987 69.5439L60.0888 69.5786L60.1908 69.6122L60.2932 69.6447L60.3959 69.676L60.4989 69.706L60.6022 69.7348L60.7059 69.7623L60.8098 69.7884L60.914 69.8132L61.0186 69.8366L61.1234 69.8585L61.2284 69.8789L61.3337 69.8979L61.4392 69.9153L61.5449 69.9311L61.6508 69.9453L61.757 69.9579L61.7701 69.9593L61.8632 69.9689L61.8765 69.9702L61.9696 69.9783L61.9831 69.9793L62.0761 69.986L62.0897 69.9868L62.1828 69.992L62.1964 69.9926L62.2895 69.9963L62.3031 69.9968L62.3962 69.999L62.4099 69.9992L62.503 69.9999H62.5167L62.6098 69.9992L62.6235 69.999L62.7166 69.9968L62.7303 69.9963L62.8233 69.9926L62.837 69.992L62.9301 69.9868L62.9436 69.986L63.0367 69.9793L63.0501 69.9783L63.1432 69.9702L63.1565 69.9689L63.2496 69.9593L63.2628 69.9579L63.3559 69.947L63.462 69.9329L63.5679 69.9172L63.6736 69.9L63.7791 69.8812L63.8844 69.8609L63.9895 69.8391L64.0943 69.8158L64.1988 69.7912L64.303 69.7651L64.407 69.7377L64.5106 69.7089L64.6139 69.6789L64.717 69.6477L64.8197 69.6152L64.922 69.5816L65.0241 69.5469L65.1258 69.5111L65.2272 69.4743L65.3282 69.4365L65.4289 69.3978L65.5292 69.3582L65.6293 69.3177L65.7289 69.2765L65.7352 69.2738L65.8282 69.2345L65.8341 69.2319L65.9272 69.1918L65.9328 69.1893L66.0259 69.1484L66.0311 69.1461L66.1242 69.1044L66.1291 69.1022L66.2222 69.0599L66.2267 69.0579L66.3198 69.0149L66.324 69.0129L66.4171 68.9694L66.421 68.9676L66.5141 68.9235L66.5176 68.9218L66.6107 68.8772L66.614 68.8757L66.707 68.8306L66.7099 68.8292L66.803 68.7838L66.8056 68.7825L66.8987 68.7367L66.9009 68.7356L66.994 68.6894L67.0906 68.6413L67.1837 68.5946L67.2794 68.5465L67.4655 68.4524C67.9298 68.2179 68.1297 67.6224 67.9119 67.1224C67.6941 66.6224 67.1412 66.4072 66.6769 66.6417L66.492 66.7351L66.3989 66.782L66.3087 66.8272L66.2156 66.8736L66.1267 66.9177L66.1244 66.9188L66.0362 66.9622L66.0336 66.9635L65.946 67.0063L65.9431 67.0077L65.8561 67.0498L65.8529 67.0513L65.7666 67.0927L65.763 67.0944L65.6774 67.1349L65.6735 67.1367L65.5885 67.1765L65.5843 67.1785L65.5 67.2174L65.4954 67.2194L65.4118 67.2575L65.4069 67.2597L65.3239 67.2968L65.3187 67.2991L65.2364 67.3353L65.2308 67.3377L65.1492 67.373L65.1433 67.3755L65.0623 67.4097L65.0561 67.4123L64.9758 67.4456L64.9692 67.4483L64.8897 67.4805L64.8827 67.4833L64.8038 67.5145L64.7966 67.5173L64.7184 67.5474L64.7107 67.5503L64.6332 67.5793L64.6253 67.5822L64.5484 67.6102L64.5401 67.6132L64.4639 67.64L64.4553 67.643L64.3798 67.6687L64.3708 67.6717L64.296 67.6963L64.2867 67.6993L64.2125 67.7228L64.2029 67.7258L64.1243 67.7496L64.0415 67.7737L63.9587 67.7967L63.8763 67.8185L63.7943 67.8391L63.7124 67.8585L63.6309 67.8766L63.5497 67.8935L63.4686 67.9093L63.3878 67.9237L63.3073 67.9369L63.2269 67.9489L63.1468 67.9596L63.0668 67.969L62.987 67.9772L62.9072 67.9842L62.8276 67.9899L62.7481 67.9943L62.6687 67.9974L62.5892 67.9993L62.5099 67.9999L62.4305 67.9993L62.3511 67.9974L62.2717 67.9943L62.1921 67.9898L62.1125 67.9842L62.0328 67.9772L61.9529 67.969L61.8729 67.9596L61.7928 67.9489L61.7124 67.9369L61.6319 67.9237L61.5511 67.9093L61.4701 67.8936L61.3888 67.8766L61.3073 67.8585L61.2255 67.8391L61.1434 67.8185L61.0611 67.7967L60.9782 67.7737L60.8954 67.7496L60.8168 67.7258L60.8072 67.7228L60.733 67.6993L60.7237 67.6963L60.6489 67.6717L60.6399 67.6687L60.5644 67.643L60.5558 67.64L60.4796 67.6132L60.4713 67.6102L60.3945 67.5822L60.3865 67.5793L60.309 67.5503L60.3014 67.5474L60.2232 67.5173L60.2159 67.5145L60.137 67.4833L60.1301 67.4805L60.0505 67.4483L60.0439 67.4456L59.9636 67.4123L59.9574 67.4097L59.8765 67.3755L59.8706 67.373L59.7889 67.3377L59.7834 67.3353L59.7011 67.2991L59.6958 67.2968L59.6129 67.2597L59.608 67.2575L59.5243 67.2194L59.5198 67.2174L59.4355 67.1785L59.4312 67.1765L59.3462 67.1367L59.3424 67.1349L59.2567 67.0944L59.2532 67.0927L59.1668 67.0513L59.1636 67.0498L59.0766 67.0077L59.0738 67.0063L58.9861 66.9635L58.9836 66.9622L58.8953 66.9188L58.893 66.9177L58.8041 66.8736L58.8022 66.8727L58.711 66.8272L57.9707 66.4536L57.8761 66.406L57.7818 66.3587L57.6871 66.3115L57.592 66.2644L57.4967 66.2174L57.4011 66.1707L57.3051 66.1243L57.2088 66.0781L57.1121 66.0324L57.0151 65.987L56.9178 65.9421L56.8202 65.8977L56.7222 65.8538L56.6239 65.8106L56.5253 65.768L56.4263 65.7261L56.327 65.6849L56.2273 65.6445L56.1273 65.605L56.0269 65.5663L55.9262 65.5286L55.8252 65.4918L55.7238 65.456L55.6221 65.4213L55.5201 65.3877L55.4177 65.3553L55.315 65.324L55.212 65.2939L55.1086 65.2651L55.005 65.2376L54.901 65.2115L54.7968 65.1867L54.6923 65.1634L54.5875 65.1415L54.4825 65.121L54.3772 65.1021L54.2717 65.0847L54.1659 65.0689L54.06 65.0546L53.9539 65.0421L53.9407 65.0406L53.8476 65.0311L53.8343 65.0298L53.7412 65.0217L53.7278 65.0206L53.6347 65.014L53.6212 65.0131L53.5281 65.008L53.5145 65.0073L53.4214 65.0036L53.4077 65.0032L53.3146 65.001L53.3009 65.0007L53.2078 65H53.1941L53.101 65.0007L53.0873 65.001L52.9942 65.0032L52.9806 65.0036L52.8875 65.0073L52.8739 65.008L52.7808 65.0131L52.7673 65.014L52.6742 65.0206L52.6607 65.0217L52.5677 65.0298L52.5543 65.0311L52.4613 65.0406L52.4481 65.0421L52.355 65.053L52.2489 65.067L52.143 65.0827L52.0372 65.1L51.9317 65.1187L51.8264 65.1391L51.7214 65.1608L51.6166 65.1841L51.5121 65.2088L51.4079 65.2349L51.3039 65.2623L51.2003 65.291L51.0969 65.321L50.9939 65.3523L50.8912 65.3847L50.7888 65.4183L50.6868 65.453L50.5851 65.4888L50.4837 65.5256L50.3827 65.5634L50.282 65.6021L50.1816 65.6418L50.0816 65.6822L49.9819 65.7235L49.8826 65.7655L49.7836 65.8082L49.685 65.8515L49.5867 65.8955L49.4887 65.94L49.4841 65.9421L49.3911 65.985L49.3868 65.987L49.2937 66.0305L49.2899 66.0324L49.1968 66.0764L49.1932 66.0781L49.1001 66.1227L49.0969 66.1243L49.0038 66.1693L49.0009 66.1707L48.9078 66.2162L48.9053 66.2174L48.8122 66.2633L48.8099 66.2644L48.7168 66.3105L48.7149 66.3115L48.6202 66.3587L47.8727 66.7359L47.6909 66.8272L47.5998 66.8726L47.5978 66.8736L47.5089 66.9177L47.5067 66.9188L47.4184 66.9622L47.4158 66.9635L47.3282 67.0063L47.3253 67.0077L47.2383 67.0498L47.2351 67.0513L47.1488 67.0927L47.1453 67.0944L47.0596 67.1349L47.0557 67.1367L46.9707 67.1765L46.9665 67.1785L46.8822 67.2174L46.8776 67.2194L46.794 67.2575L46.7891 67.2597L46.7061 67.2968L46.7009 67.2991L46.6186 67.3353L46.613 67.3377L46.5314 67.373L46.5255 67.3755L46.4446 67.4097L46.4383 67.4123L46.3581 67.4456L46.3515 67.4483L46.2684 67.4819L46.1824 67.5159L46.0968 67.5488L46.0114 67.5808L45.9265 67.6116L45.8419 67.6414L45.7575 67.6702L45.6736 67.6978L45.59 67.7242L45.5065 67.7496L45.4237 67.7737L45.341 67.7967L45.2585 67.8185L45.1765 67.8391L45.0947 67.8585L45.0132 67.8766L44.9319 67.8936L44.8509 67.9093L44.7701 67.9237L44.6895 67.9369L44.6092 67.9489L44.5291 67.9596L44.449 67.969L44.3692 67.9772L44.2895 67.9842L44.2098 67.9899L44.1304 67.9943L44.0509 67.9974L43.9715 67.9993L43.8921 67.9999L43.8127 67.9993L43.7333 67.9974L43.6538 67.9943L43.5744 67.9899L43.4947 67.9842L43.415 67.9772L43.3352 67.969L43.2552 67.9596L43.175 67.9489L43.0947 67.9369L43.0142 67.9237L42.9333 67.9093L42.8523 67.8936L42.771 67.8766L42.6895 67.8585L42.6077 67.8391L42.5257 67.8185L42.4432 67.7967L42.3606 67.7737L42.2776 67.7496L42.1942 67.7243L42.1106 67.6978L42.0267 67.6702L41.9423 67.6415L41.8577 67.6116L41.7728 67.5808L41.6874 67.5488L41.6018 67.5159L41.5158 67.4819L41.4294 67.4469L41.3428 67.411L41.2557 67.3742L41.1684 67.3365L41.0807 67.2979L40.9927 67.2586L40.9066 67.2194L40.902 67.2174L40.8177 67.1785L40.8135 67.1765L40.7285 67.1367L40.7246 67.1349L40.6389 67.0944L40.6354 67.0927L40.5491 67.0513L40.5459 67.0498L40.4589 67.0077L40.456 67.0063L40.3684 66.9635L40.3658 66.9622L40.2775 66.9188L40.2753 66.9177L40.1864 66.8736L40.1844 66.8727L39.9115 66.7359L39.3529 66.4536L39.2583 66.406L39.164 66.3587L39.0693 66.3115L38.9743 66.2644L38.8789 66.2174L38.7833 66.1707L38.6873 66.1243L38.591 66.0781L38.4944 66.0324L38.3974 65.987L38.3001 65.9421L38.2024 65.8977L38.1045 65.8538L38.0062 65.8106L37.9075 65.768L37.8085 65.7261L37.7092 65.6849L37.6095 65.6445L37.5095 65.605L37.4092 65.5663L37.3085 65.5286L37.2074 65.4918L37.1061 65.456L37.0043 65.4213L36.9023 65.3877L36.7999 65.3553L36.6972 65.324L36.5942 65.2939L36.4909 65.2651L36.3872 65.2376L36.2833 65.2115L36.179 65.1867L36.0745 65.1634L35.9697 65.1415L35.8647 65.121L35.7594 65.1021L35.6539 65.0847L35.5482 65.0689L35.4422 65.0546L35.3361 65.0421L35.323 65.0406L35.2299 65.0311L35.2165 65.0298L35.1235 65.0217L35.11 65.0206L35.0169 65.014L35.0034 65.0131L34.9103 65.008L34.8967 65.0073L34.8036 65.0036L34.79 65.0032L34.6969 65.001L34.6832 65.0007L34.5901 65H34.5764L34.4833 65.0007L34.4696 65.001L34.3765 65.0032L34.3628 65.0036L34.2697 65.0073L34.2561 65.008L34.163 65.0131L34.1495 65.014L34.0564 65.0206L34.043 65.0217L33.9499 65.0298L33.9366 65.0311L33.8435 65.0406L33.8303 65.0421L33.7372 65.053L33.6311 65.067L33.5252 65.0827L33.4195 65.1L33.314 65.1187L33.2087 65.1391L33.1036 65.1608L32.9988 65.1841L32.8943 65.2088L32.7901 65.2349L32.6861 65.2623L32.5825 65.291L32.4792 65.321L32.3761 65.3523L32.2734 65.3847L32.1711 65.4183L32.069 65.453L31.9673 65.4888L31.8659 65.5256L31.7649 65.5634L31.6642 65.6021L31.5638 65.6418L31.4638 65.6822L31.3642 65.7235L31.2648 65.7655L31.1658 65.8082L31.0672 65.8515L30.9689 65.8955L30.8709 65.94L30.7733 65.985L30.676 66.0305L30.579 66.0764L30.4824 66.1227L30.386 66.1693L30.3832 66.1707L30.2901 66.2162L30.2875 66.2174L30.1944 66.2632L30.1922 66.2644L30.0971 66.3115L30.0041 66.3579L29.9081 66.406L29.815 66.4528L29.5342 66.5947C29.07 66.8294 28.8703 67.4249 29.0882 67.9249C29.3061 68.4248 29.8591 68.6399 30.3233 68.4052L30.6026 68.2641L30.6929 68.2186L30.786 68.172L30.8756 68.1273L30.9664 68.0823L30.9686 68.0812L31.0569 68.0377L31.0595 68.0364L31.1471 67.9937L31.15 67.9922L31.237 67.9502L31.2402 67.9486L31.3265 67.9073L31.3301 67.9056L31.4157 67.865L31.4196 67.8632L31.5046 67.8235L31.5088 67.8215L31.5931 67.7826L31.5977 67.7805L31.6837 67.7414L31.7718 67.702L31.8595 67.6635L31.9468 67.6257L32.034 67.5889L32.1205 67.553L32.2069 67.5181L32.2929 67.4841L32.3786 67.4511L32.4639 67.4192L32.5489 67.3883L32.6335 67.3585L32.7177 67.3298L32.8017 67.3022L32.8854 67.2757L32.9687 67.2504L33.0517 67.2262L33.1344 67.2032L33.2167 67.1814L33.2989 67.1608L33.3807 67.1415L33.4622 67.1233L33.5434 67.1064L33.6245 67.0907L33.7053 67.0762L33.7858 67.063L33.8661 67.0511L33.9463 67.0404L34.0263 67.0309L34.1062 67.0227L34.1859 67.0158L34.2655 67.0101L34.345 67.0057L34.4244 67.0025Z" fill="#F5F2EA"/>
</svg>
