<svg width="102" height="100" viewBox="0 0 102 100" fill="none" xmlns="http://www.w3.org/2000/svg">
<path d="M56.5653 0.555085C64.2062 1.47144 71.9396 2.97768 78.3725 7.20154C84.784 11.4113 89.1402 17.9418 93.0735 24.5265C96.9777 31.0624 100.272 37.9896 101.272 45.5368C102.285 53.1862 101.362 60.9663 98.8673 68.2682C96.3514 75.6334 92.5233 82.6417 86.7967 87.9126C81.1345 93.1242 73.8417 96.1013 66.4195 98.1341C59.2274 100.104 51.7779 100.414 44.3733 99.5318C36.9519 98.6474 29.718 96.6829 23.222 92.9866C16.5464 89.1881 10.2071 84.4173 6.24598 77.8369C2.29568 71.2746 1.55744 63.426 0.837177 55.8003C0.120505 48.2127 -0.133698 40.561 2.03504 33.2547C4.26347 25.7473 7.9395 18.5952 13.5136 13.0947C19.0954 7.5866 26.3191 4.0548 33.8481 1.86183C41.2229 -0.286199 48.9387 -0.359551 56.5653 0.555085Z" fill="#BD8737"/>
<mask id="path-2-inside-1_326_4962" fill="white">
<path fill-rule="evenodd" clip-rule="evenodd" d="M47.8393 51.6607C52.8986 51.6607 57 47.5593 57 42.4999C57 37.4406 52.8986 33.3392 47.8393 33.3392C44.7565 33.3392 42.0294 34.862 40.3691 37.1964H35.3036C32.3745 37.1964 30 39.5709 30 42.4999C30 45.429 32.3745 47.8035 35.3036 47.8035H40.3691C42.0294 50.1379 44.7565 51.6607 47.8393 51.6607Z"/>
</mask>
<path d="M40.3691 37.1964V39.1964H41.4009L41.9989 38.3556L40.3691 37.1964ZM40.3691 47.8035L41.9989 46.6443L41.4009 45.8035H40.3691V47.8035ZM55 42.4999C55 46.4547 51.794 49.6607 47.8393 49.6607V53.6607C54.0032 53.6607 59 48.6638 59 42.4999H55ZM47.8393 35.3392C51.794 35.3392 55 38.5452 55 42.4999H59C59 36.3361 54.0032 31.3392 47.8393 31.3392V35.3392ZM41.9989 38.3556C43.3001 36.526 45.4311 35.3392 47.8393 35.3392V31.3392C44.0819 31.3392 40.7586 33.198 38.7393 36.0372L41.9989 38.3556ZM35.3036 39.1964H40.3691V35.1964H35.3036V39.1964ZM32 42.4999C32 40.6754 33.4791 39.1964 35.3036 39.1964V35.1964C31.2699 35.1964 28 38.4663 28 42.4999H32ZM35.3036 45.8035C33.4791 45.8035 32 44.3245 32 42.4999H28C28 46.5336 31.2699 49.8035 35.3036 49.8035V45.8035ZM40.3691 45.8035H35.3036V49.8035H40.3691V45.8035ZM47.8393 49.6607C45.4311 49.6607 43.3001 48.4739 41.9989 46.6443L38.7393 48.9627C40.7586 51.8019 44.0819 53.6607 47.8393 53.6607V49.6607Z" fill="#F5F2EA" mask="url(#path-2-inside-1_326_4962)"/>
<path d="M51.9999 55.4997C48.4998 58 48.381 61 50.5 63.9997C52.8766 67.3641 58.4999 63.5 61 62.9997C63.3334 65.3331 67.9999 69.9754 71 65.4997C73.9999 62 66.4999 56 66.4999 56C66.4999 56 71.9999 48.5 67.9999 45C65.4335 42.7544 61.3999 44.3998 58.9999 47.9998C55.9999 52.4998 56.6389 52.186 51.9999 55.4997Z" stroke="#F5F2EA" stroke-width="2" stroke-linejoin="round"/>
</svg>
