<svg width="103" height="100" viewBox="0 0 103 100" fill="none" xmlns="http://www.w3.org/2000/svg">
<path d="M57.0652 0.555085C64.7061 1.47144 72.4395 2.97768 78.8724 7.20154C85.2839 11.4113 89.64 17.9418 93.5734 24.5265C97.4776 31.0624 100.772 37.9896 101.772 45.5368C102.785 53.1862 101.861 60.9663 99.3672 68.2682C96.8513 75.6334 93.0231 82.6417 87.2966 87.9126C81.6344 93.1242 74.3415 96.1013 66.9193 98.1341C59.7273 100.104 52.2778 100.414 44.8732 99.5318C37.4518 98.6474 30.2179 96.6829 23.7219 92.9866C17.0463 89.1881 10.707 84.4173 6.74586 77.8369C2.79556 71.2746 2.05732 63.426 1.33705 55.8003C0.620383 48.2127 0.36618 40.561 2.53492 33.2547C4.76335 25.7473 8.43938 18.5952 14.0135 13.0947C19.5953 7.5866 26.819 4.0548 34.348 1.86183C41.7227 -0.286199 49.4386 -0.359551 57.0652 0.555085Z" fill="#BD8737"/>
<path d="M31 69C30.6666 64.8334 31.6 56.6 38 57C44.4 57.4 48.3422 56.2367 51.5 51.5C53.5 48.5 53.5 45.5 49 43.5C44.5 41.5 44.5 42 44.5 30.5" stroke="#F5F2EA" stroke-width="2" stroke-linejoin="round"/>
<path d="M37.0584 69C36.7251 64.8334 38.5372 59.4393 43.5002 63.5C49 68 57.2187 68.7729 64 64.5C72.1737 59.3497 74.3278 49.3683 69.5 41C62 28 48.5 49.5 50.5584 30.5" stroke="#F5F2EA" stroke-width="2" stroke-linejoin="round"/>
<path d="M57.5 52C57.5 53.3742 56.972 57.5 52 57.5C56.972 57.5 57.5 61.6258 57.5 63C57.5 61.6258 58.028 57.5 63 57.5C58.028 57.5 57.5 53.3742 57.5 52Z" fill="#F5F2EA"/>
<path d="M59.5 44C59.5 44.8745 59.164 47.5 56 47.5C59.164 47.5 59.5 50.1255 59.5 51C59.5 50.1255 59.836 47.5 63 47.5C59.836 47.5 59.5 44.8745 59.5 44Z" fill="#F5F2EA"/>
<path d="M64.5 49C64.5 49.8745 64.164 52.5 61 52.5C64.164 52.5 64.5 55.1255 64.5 56C64.5 55.1255 64.836 52.5 68 52.5C64.836 52.5 64.5 49.8745 64.5 49Z" fill="#F5F2EA"/>
</svg>
