<svg width="102" height="100" viewBox="0 0 102 100" fill="none" xmlns="http://www.w3.org/2000/svg">
<path d="M59.7418 0.281758C67.2784 1.23307 74.7132 3.66936 80.8018 8.21185C86.843 12.719 90.9078 19.2789 94.2561 26.0317C97.525 32.6244 99.1543 39.7418 100.057 47.0449C101.001 54.6879 102.347 62.6343 99.6707 69.8554C96.9693 77.1441 91.186 82.8884 85.0185 87.6196C79.0587 92.1916 71.9155 94.6081 64.6968 96.6849C57.471 98.7637 50.12 100.607 42.6433 99.8108C34.9527 98.9921 27.4075 96.5031 21.0889 92.0431C14.7598 87.5759 10.0137 81.2262 6.51858 74.3126C3.08262 67.516 1.60918 60.0182 1.05894 52.4224C0.50271 44.7439 0.440455 36.8778 3.28869 29.7254C6.15284 22.5332 11.2163 16.3465 17.3211 11.5859C23.262 6.95305 30.5521 4.72786 37.8319 2.78797C45.0251 0.871139 52.3562 -0.650497 59.7418 0.281758Z" fill="#BD8737"/>
<path d="M53.5577 35.26L53.5576 35.26C51.4133 35.2083 49.6014 35.7345 47.9802 36.2482L53.5577 35.26ZM53.5577 35.26C56.0283 35.3193 57.8537 36.1065 59.1694 37.3167C60.4971 38.5379 61.3767 40.256 61.8204 42.2826C62.7134 46.3608 61.7917 51.4887 59.5129 55.5357L59.4978 55.5627L59.4843 55.5905C57.7791 59.1122 57.1084 62.1753 56.5957 65.1358C56.5031 65.6701 56.416 66.1984 56.3294 66.7239C55.9339 69.1224 55.5479 71.4637 54.6974 74.0633L54.6973 74.0634M53.5577 35.26L54.6973 74.0634M43.1649 36.2482L43.1646 36.2481C41.5452 35.7338 39.7326 35.2083 37.588 35.26L37.5879 35.26C35.1176 35.3192 33.2936 36.108 31.9795 37.3206C30.6532 38.5443 29.7754 40.2661 29.3336 42.2971C28.4447 46.3839 29.3714 51.5206 31.6509 55.5685L31.6565 55.5784L31.6618 55.5884C33.4137 58.8712 34.0999 62.0037 34.6089 65.0461C34.7107 65.6547 34.8052 66.2564 34.899 66.8538C35.2782 69.27 35.6464 71.6154 36.4469 74.063L43.1649 36.2482ZM43.1649 36.2482C44.7869 36.7627 46.3581 36.7628 47.98 36.2483L43.1649 36.2482ZM39.204 74.0083L39.204 74.008C39.5389 72.7977 39.797 71.4474 40.0711 70.0134C40.1169 69.7738 40.1631 69.5319 40.2102 69.2879C40.5345 67.6088 40.8978 65.8484 41.4399 64.2267L39.204 74.0083ZM39.204 74.0083C39.0489 74.5691 38.5371 74.9852 37.85 74.9997C37.1629 75.0142 36.6294 74.6196 36.447 74.0634L39.204 74.0083ZM54.6973 74.0634C54.5156 74.6192 53.9825 75.0142 53.2939 74.9997C52.6083 74.9852 52.0964 74.5696 51.9409 74.0081C51.6063 72.7984 51.3483 71.4487 51.0743 70.0155C51.0284 69.7752 50.982 69.5326 50.9347 69.2879C50.6104 67.6087 50.247 65.8483 49.7049 64.2266C49.1119 62.4526 47.4559 61.3266 45.5731 61.3266C43.6896 61.3266 42.0332 62.4512 41.44 64.2265L54.6973 74.0634Z" stroke="#F5F2EA" stroke-width="2"/>
<path d="M68.5 24C68.5 25.3742 67.972 29.5 63 29.5C67.972 29.5 68.5 33.6258 68.5 35C68.5 33.6258 69.028 29.5 74 29.5C69.028 29.5 68.5 25.3742 68.5 24Z" fill="#F5F2EA"/>
<path d="M69.5 43C69.5 44.1244 69.068 47.5 65 47.5C69.068 47.5 69.5 50.8756 69.5 52C69.5 50.8756 69.932 47.5 74 47.5C69.932 47.5 69.5 44.1244 69.5 43Z" fill="#F5F2EA"/>
<path d="M54.5 26C54.5 26.6247 54.26 28.5 52 28.5C54.26 28.5 54.5 30.3753 54.5 31C54.5 30.3753 54.74 28.5 57 28.5C54.74 28.5 54.5 26.6247 54.5 26Z" fill="#F5F2EA"/>
</svg>
