<svg width="100" height="100" viewBox="0 0 100 100" fill="none" xmlns="http://www.w3.org/2000/svg">
<path d="M55.1517 0.0750464C62.6972 0.395382 70.4785 0.868164 77.0724 4.55018C83.7713 8.29077 88.8365 14.4224 92.7082 21.0463C96.5232 27.5732 98.7511 34.9251 99.2363 42.4695C99.711 49.8505 98.0756 57.1309 95.4742 64.0545C92.9054 70.8914 89.0488 77.0618 84.1904 82.5149C79.163 88.1576 73.5998 93.4681 66.6413 96.4166C59.505 99.4404 51.5665 100.732 43.9011 99.5864C36.3284 98.4545 29.6901 94.2678 23.3679 89.9484C17.1927 85.7293 11.2314 81.0277 7.36621 74.6251C3.5274 68.2662 2.16645 60.8438 1.34136 53.462C0.516538 46.0824 0.0488839 38.4909 2.54577 31.4978C5.0376 24.5189 10.0505 18.7932 15.5093 13.7816C20.845 8.88293 27.0486 5.08405 33.8944 2.71711C40.7283 0.354227 47.9272 -0.231658 55.1517 0.0750464Z" fill="#BD8737"/>
<path d="M36 53.0001V37.2005L50.118 32.0641L64.236 37.2005V53.0001C64.236 56.1236 62.4669 58.877 59.6466 61.5491C57.3091 63.7638 54.3797 65.8055 51.4053 67.8786C50.9766 68.1774 50.5469 68.4768 50.118 68.7775C49.6887 68.4766 49.2588 68.177 48.8298 67.878C45.8556 65.8051 42.9266 63.7637 40.5893 61.5492C37.7691 58.8772 36 56.1238 36 53.0001Z" stroke="#F5F2EA" stroke-width="2"/>
</svg>
