<svg width="99" height="100" viewBox="0 0 99 100" fill="none" xmlns="http://www.w3.org/2000/svg">
<path d="M53.8326 0.023582C61.4127 0.252632 69.3715 0.68521 75.8063 4.69813C82.2179 8.69659 85.8152 15.7878 89.5989 22.3285C93.2414 28.625 96.5388 35.1449 97.5837 42.3437C98.634 49.5796 97.7001 56.9021 95.6353 63.9163C93.5368 71.0452 90.6025 78.0636 85.4831 83.4503C80.355 88.8461 73.3639 91.8175 66.4638 94.6106C59.4385 97.4542 52.2338 100.303 44.662 99.974C36.9604 99.639 29.4813 96.9064 23.0078 92.7206C16.6252 88.5935 11.6199 82.692 7.78577 76.1292C4.05174 69.7378 1.75271 62.6157 1.11144 55.2413C0.484236 48.0286 2.24471 40.9984 4.12282 34.0064C6.07405 26.7422 7.27108 18.8336 12.3749 13.3084C17.4953 7.76528 25.2211 5.68954 32.4074 3.38674C39.3791 1.15268 46.515 -0.197536 53.8326 0.023582Z" fill="#BD8737"/>
<path d="M57.5176 66.014C57.5176 66.3838 57.2255 66.7126 56.8086 66.7126H43.0454C42.6701 66.7126 42.3364 66.4248 42.3364 66.014V62.1509H57.4759L57.4756 66.014H57.5176Z" fill="#F5F2EA"/>
<path d="M42.3364 55.9043H57.4759V60.466H42.3364V55.9043Z" fill="#F5F2EA"/>
<path d="M42.3364 49.6577H57.4759V54.2194H42.3364V49.6577Z" fill="#F5F2EA"/>
<path d="M42.3364 43.4111H57.4759V47.9727H42.3364V43.4111Z" fill="#F5F2EA"/>
<path d="M57.5176 37.8631V41.7262H42.3364V37.8631C42.3364 37.4933 42.6285 37.1645 43.0453 37.1645H56.8085C57.1841 37.2055 57.5178 37.4933 57.5178 37.8631H57.5176Z" fill="#F5F2EA"/>
<path d="M56.8085 33.8357H54.1393V32.6028C54.1393 31.6986 53.3888 31 52.5128 31H47.3829C46.4654 31 45.7564 31.7396 45.7564 32.6028V33.7944H43.0872C40.8352 33.7944 39 35.6027 39 37.8217V65.9726C39 68.1917 40.8352 70 43.0872 70H56.8503C59.1023 70 60.9375 68.1917 60.9375 65.9726V37.8628C60.9375 35.6438 59.0608 33.8355 56.8085 33.8355L56.8085 33.8357ZM59.2275 66.014C59.2275 67.3293 58.1432 68.3567 56.8501 68.3567H43.0869C41.7522 68.3567 40.7095 67.2882 40.7095 66.014L40.7098 37.8631C40.7098 36.5479 41.7941 35.5205 43.0872 35.5205H56.8504C58.1852 35.5205 59.2278 36.5889 59.2278 37.8631L59.2275 66.014Z" fill="#F5F2EA"/>
</svg>
