<svg width="100" height="100" viewBox="0 0 100 100" fill="none" xmlns="http://www.w3.org/2000/svg">
<path d="M52.9043 0.0267013C60.4849 0.328709 68.0502 2.29831 74.477 6.3299C80.8119 10.3038 84.9893 16.691 89.2576 22.8314C93.544 28.9978 98.4324 35.0992 99.6287 42.5132C100.827 49.9413 98.3001 57.3443 95.9818 64.5025C93.689 71.5821 91.2355 78.8134 86.1215 84.2195C81.0286 89.6032 73.9549 92.4049 67.0473 95.0894C60.1684 97.7628 53.0811 100.509 45.7245 99.9192C38.3867 99.3306 31.9294 95.3462 25.5023 91.757C19.0243 88.1395 12.2266 84.6869 7.79355 78.7372C3.30379 72.7114 0.951935 65.2862 0.207608 57.8086C-0.520119 50.4978 1.64293 43.3952 3.56984 36.3054C5.54087 29.0533 6.74662 21.2385 11.6863 15.5749C16.6563 9.87639 24.142 7.27516 31.2167 4.60645C38.2176 1.96559 45.4278 -0.271156 52.9043 0.0267013Z" fill="#BD8737"/>
<path d="M64.6819 43.7272H69.4091C69.7354 43.7272 70 43.9918 70 44.3183V56.1364C70 56.4626 69.7354 56.7272 69.4091 56.7272H64.6819V60.8636C64.6819 61.1898 64.4173 61.4544 64.0908 61.4544H58.7727C58.4465 61.4544 58.1819 61.1898 58.1819 60.8636V50.8183H42.8181V60.8636C42.8181 61.1898 42.5535 61.4544 42.2273 61.4544H36.9092C36.5827 61.4544 36.3181 61.1898 36.3181 60.8636V56.7272H31.5908C31.2646 56.7272 31 56.4626 31 56.1364V44.3183C31 43.9918 31.2646 43.7272 31.5908 43.7272H36.3181V39.5909C36.3181 39.2646 36.5827 39 36.9092 39H42.2273C42.5535 39 42.8181 39.2646 42.8181 39.5909V49.6361H58.1819V39.5909C58.1819 39.2646 58.4465 39 58.7727 39H64.0908C64.4173 39 64.6819 39.2646 64.6819 39.5909V43.7272ZM37.5 40.1817V60.2728H41.6364V40.1817H37.5ZM32.1817 44.9092V55.5456H36.318V44.9092H32.1817ZM59.3636 60.2729H63.4999V40.1818H59.3636V60.2729ZM64.6819 55.5455H68.8182V44.9091H64.6819V55.5455Z" fill="#F5F2EA" stroke="#F5F2EA"/>
</svg>
