<svg width="103" height="100" viewBox="0 0 103 100" fill="none" xmlns="http://www.w3.org/2000/svg">
<path d="M71.3847 2.1182C78.5502 4.93908 84.1617 10.5131 89.2801 16.2667C94.4511 22.0796 99.2943 28.3783 101.407 35.8661C103.53 43.3917 102.848 51.3568 101.344 59.0301C99.8439 66.6786 97.4831 74.2982 92.6693 80.4281C87.9048 86.4951 81.0332 90.3723 74.0902 93.7343C67.2885 97.0277 60.0981 99.3879 52.5553 99.852C44.9173 100.322 37.0191 99.799 30.1444 96.4378C23.3575 93.1196 18.7439 86.8279 13.9591 80.9818C9.25402 75.2333 4.45811 69.4433 2.24592 62.3518C-0.00414324 55.1389 -0.336155 47.398 1.17311 39.9945C2.67385 32.6328 6.44561 26.0295 10.886 19.969C15.3374 13.8936 20.3912 8.07733 27.0862 4.6275C33.7587 1.18932 41.4179 0.799504 48.9121 0.374994C56.5087 -0.0553168 64.3048 -0.668955 71.3847 2.1182Z" fill="#BD8737"/>
<path d="M43.6816 55.8181C41.3973 55.8181 39.5452 57.6702 39.5452 59.9546C39.5452 62.2389 41.3973 64.091 43.6816 64.091H52.545C55.1558 64.091 57.2723 66.2075 57.2723 68.8182V69.4091C57.2723 69.7356 57.0079 70 56.6814 70C56.355 70 56.0905 69.7356 56.0905 69.4091V68.8182C56.0905 66.8601 54.5032 65.2727 52.545 65.2727H43.6816C40.7447 65.2727 38.3635 62.8918 38.3635 59.9546C38.3635 58.2413 39.1737 56.7174 40.4318 55.7448C37.9166 55.3229 36 53.1354 36 50.5001C36 47.8648 37.9166 45.6774 40.4318 45.2554C39.1737 44.2828 38.3635 42.7588 38.3635 41.0456C38.3635 38.1083 40.7447 35.7275 43.6816 35.7275H52.545C54.5032 35.7275 56.0905 34.1401 56.0905 32.182V31.5911C56.0905 31.2646 56.355 31.0002 56.6814 31.0002C57.0079 31.0002 57.2723 31.2646 57.2723 31.5911V32.182C57.2723 34.7927 55.1558 36.9092 52.545 36.9092H43.6816C41.3973 36.9092 39.5452 38.7613 39.5452 41.0456C39.5452 43.33 41.3973 45.1821 43.6816 45.1821H57.8636C58.1901 45.1821 58.4545 45.4465 58.4545 45.7729C58.4545 46.0994 58.1901 46.3638 57.8636 46.3638H41.3187C39.034 46.3638 37.1822 48.2159 37.1822 50.5002C37.1822 52.7846 39.034 54.6366 41.3187 54.6366H57.8636C58.1901 54.6366 58.4545 54.9011 58.4545 55.2275C58.4545 55.554 58.1901 55.8184 57.8636 55.8184L43.6816 55.8181ZM60.4195 60.5454C62.0901 61.7217 63.1813 63.6652 63.1813 65.8635V69.409C63.1813 69.7355 62.9168 69.9999 62.5904 69.9999C62.2642 69.9999 61.9995 69.7355 61.9995 69.409V65.8635C61.9995 62.9263 59.6186 60.5454 56.6814 60.5454H48.4086C48.0824 60.5454 47.8177 60.281 47.8177 59.9545C47.8177 59.6281 48.0824 59.3637 48.4086 59.3637H62.5906C64.8752 59.3637 66.727 57.5116 66.727 55.2272C66.727 52.9429 64.8752 51.0908 62.5906 51.0908H48.4086C48.0824 51.0908 47.8177 50.8264 47.8177 50.4999C47.8177 50.1735 48.0824 49.9091 48.4086 49.9091H62.5906C64.8752 49.9091 66.727 48.057 66.727 45.7727C66.727 43.4883 64.8752 41.6362 62.5906 41.6362H48.4086C48.0824 41.6362 47.8177 41.3718 47.8177 41.0454C47.8177 40.7189 48.0824 40.4545 48.4086 40.4545H56.6814C59.6186 40.4545 61.9995 38.0736 61.9995 35.1364V31.5909C61.9995 31.2644 62.2642 31 62.5904 31C62.9168 31 63.1813 31.2644 63.1813 31.5909V35.1364C63.1813 37.3347 62.0901 39.2782 60.4195 40.4545H62.5904C65.5277 40.4545 67.9085 42.8354 67.9085 45.7726C67.9085 47.8306 66.7396 49.6158 65.0292 50.4999C66.7396 51.384 67.9085 53.1691 67.9085 55.2271C67.9085 58.1644 65.5276 60.5452 62.5904 60.5452L60.4195 60.5454Z" fill="#F5F2EA" stroke="#F5F2EA"/>
</svg>
