<svg width="25" height="22" viewBox="0 0 25 22" fill="none" xmlns="http://www.w3.org/2000/svg">
<path d="M4.59267 11.3686C5.86098 11.3686 6.88915 10.3089 6.88915 9.00174C6.88915 7.69457 5.86098 6.6349 4.59267 6.6349C3.32435 6.6349 2.29618 7.69457 2.29618 9.00174C2.29618 10.3089 3.32435 11.3686 4.59267 11.3686Z" fill="#BD8737"/>
<path d="M2.74793 12.3774H6.43737V19.1287H2.74793V12.3774Z" fill="#BD8737"/>
<path d="M16.226 9.23457H16.2378L16.226 9.27337V9.23457Z" fill="#BD8737"/>
<path d="M16.2378 9.23457L16.6025 8.03175H16.6401L16.9789 9.23457H16.2378Z" fill="#BD8737"/>
<path fill-rule="evenodd" clip-rule="evenodd" d="M20.2544 6.82894H19.2003V11.1746H21.8356C21.7226 15.9083 19.4261 19.1288 12.6873 19.1288H8.28254V11.1746H8.96019C10.1273 11.1746 10.8426 10.3598 10.8426 9.00178C10.8426 7.64376 10.1273 6.82894 8.92254 6.82894H8.28254V2.83247H12.6873C16.8285 2.83247 21.3838 4.15169 21.7979 10.0882H20.2544V6.82894ZM14.1179 11.1746V10.0882H12.5744V9.50618H13.9673V8.41976H12.5367V7.91536H14.0426V6.82894H11.4826V11.1746H14.1179ZM15.8495 6.82894L14.5694 11.1746H15.6989L15.9248 10.3598H17.3177L17.5436 11.1746H18.6354L17.3553 6.82894H15.8495Z" fill="#BD8737"/>
<path d="M8.28245 7.91536V10.0882H8.92245C9.37422 10.0882 9.78834 9.9718 9.78834 9.00178C9.78834 8.03177 9.33658 7.91536 8.92245 7.91536H8.28245Z" fill="#BD8737"/>
<path fill-rule="evenodd" clip-rule="evenodd" d="M12.6871 0H0V22H12.6871C19.9907 22 24.6213 18.3139 24.6213 10.9806C24.6213 4.85009 21.3084 0 12.6871 0ZM1.2048 20.7584V1.31922H12.6872C19.3131 1.31922 23.3791 4.42328 23.3791 11.0194C23.3791 17.4215 19.6143 20.7584 12.6872 20.7584H1.2048Z" fill="#BD8737"/>
</svg>
