<svg width="18" height="21" viewBox="0 0 18 21" fill="none" xmlns="http://www.w3.org/2000/svg">
<path fill-rule="evenodd" clip-rule="evenodd" d="M14.8661 3.98909C14.8582 2.99611 14.5717 2.22404 13.964 1.50779C13.0669 0.451855 11.4478 0 9.37602 0H3.36119C2.93803 0 2.57701 0.318007 2.51163 0.750926L0.00641144 17.1642C-0.0429817 17.4889 0.199314 17.7818 0.516149 17.7818H3.21849L2.98544 19.3097L2.98525 19.311C2.85688 20.1598 3.49102 21 4.41962 21H7.54953C8.43182 21 9.14116 20.3466 9.27859 19.5153L9.31007 19.3469L9.89997 15.4778L9.90585 15.4448H10.1631C11.8086 15.4448 13.3943 15.1006 14.6822 14.1541C15.9878 13.1947 16.8628 11.7084 17.2459 9.67509C17.5597 8.00928 17.4497 6.35509 16.3983 5.11675L16.3972 5.11539C16.076 4.73853 15.6883 4.43872 15.259 4.20397L14.8661 3.98909ZM14.7404 5.3199C14.7548 5.23918 14.7679 5.1598 14.7796 5.08155C15.0392 5.22353 15.2697 5.39043 15.468 5.58423L15.4717 5.58782C15.5292 5.64425 15.584 5.70295 15.636 5.76396C15.6465 5.77634 15.6569 5.78879 15.6672 5.80131C16.407 6.70255 16.5489 7.97285 16.2632 9.49001C15.5694 13.1724 13.1954 14.4448 10.1631 14.4448H9.69499C9.32445 14.4448 9.00887 14.7233 8.95122 15.1024L8.91332 15.3144L8.32402 19.1796L8.2933 19.3439C8.23493 19.7217 7.92007 20 7.54953 20H4.41962C4.14266 20 3.93108 19.7444 3.97401 19.4605L5.1334 11.8594L5.1343 11.8536C5.19841 11.4502 5.51661 11.1476 5.90493 11.1126C5.92964 11.1104 5.95463 11.1092 5.97986 11.1092H7.74454C8.01421 11.1092 8.27932 11.1004 8.53933 11.0822C11.4339 10.8795 13.6961 9.50995 14.5665 6.12798C14.6229 5.90908 14.6734 5.68176 14.7178 5.44577C14.7256 5.40344 14.7332 5.36149 14.7404 5.3199Z" fill="#BD8737"/>
</svg>
