<svg width="42" height="14" viewBox="0 0 42 14" fill="none" xmlns="http://www.w3.org/2000/svg">
<path d="M30.5336 0.576978C29.8626 0.302765 28.7982 0 27.4821 0C24.1222 0 21.7562 1.84533 21.7417 4.4836C21.7138 6.43011 23.4356 7.51125 24.7235 8.16028C26.0398 8.82349 26.4872 9.25636 26.4872 9.84752C26.4738 10.7554 25.4236 11.1739 24.444 11.1739C23.0857 11.1739 22.3579 10.9582 21.2518 10.4531L20.8038 10.2365L20.3277 13.2787C21.1256 13.6532 22.5958 13.9854 24.1222 14C27.6921 14 30.0162 12.1832 30.0438 9.37172C30.0574 7.82896 29.1481 6.64684 27.1879 5.68087C25.9979 5.06077 25.2692 4.64265 25.2692 4.00819C25.2831 3.4314 25.8856 2.84062 27.2288 2.84062C28.3349 2.81169 29.1476 3.08552 29.7632 3.35954L30.0709 3.50345L30.5336 0.576978Z" fill="#BD8737"/>
<path d="M18.2 13.798H14.7977L16.9258 0.245666H20.3279L18.2 13.798Z" fill="#BD8737"/>
<path fill-rule="evenodd" clip-rule="evenodd" d="M39.2552 0.245666H36.6236C35.812 0.245666 35.1955 0.490561 34.8453 1.37011L29.7916 13.7978H33.3616C33.3616 13.7978 33.9493 12.1252 34.0756 11.7649H38.4439C38.5415 12.2407 38.8498 13.7978 38.8498 13.7978H42L39.2552 0.245666ZM35.0555 8.99691C35.3357 8.21834 36.4139 5.20507 36.4139 5.20507C36.4082 5.21675 36.4527 5.08965 36.5189 4.90072L36.5193 4.89946C36.617 4.62063 36.7615 4.20786 36.8615 3.90759L37.0993 5.07534C37.0993 5.07534 37.7436 8.31933 37.8835 8.99691H35.0555Z" fill="#BD8737"/>
<path d="M11.9559 0.245666L8.62397 9.48709L8.25987 7.61282L8.25954 7.61167L7.0699 1.38487C6.87399 0.519304 6.27193 0.274218 5.52996 0.245666H0.0560008L0 0.519496C1.33508 0.871128 2.52918 1.37783 3.57547 2.00785L6.60793 13.7837H10.2058L15.5536 0.245666H11.9559Z" fill="#BD8737"/>
</svg>
