<svg width="46" height="12" viewBox="0 0 46 12" fill="none" xmlns="http://www.w3.org/2000/svg">
<path fill-rule="evenodd" clip-rule="evenodd" d="M5.19147 0L0 11.8265H6.21492L6.98539 9.94083H8.74651L9.51698 11.8265H16.3579V10.3873L16.9674 11.8265H20.5061L21.1156 10.3569V11.8265H35.3428L37.0728 9.9898L38.6926 11.8265L46 11.8417L40.7921 5.94624L46 0H38.806L37.122 1.80272L35.5531 0H20.0758L18.7467 3.05251L17.3865 0H11.1846V1.3902L10.4947 0H5.19147ZM6.39419 1.67938H9.42363L12.8671 9.69897V1.67938H16.1858L18.8455 7.42938L21.2967 1.67938H24.5988V10.1656H22.5895L22.5731 3.51586L19.6439 10.1656H17.8465L14.9009 3.51586V10.1656H10.7674L9.98382 8.26313H5.75021L4.96821 10.164H2.75357L6.39419 1.67938ZM34.6069 1.67938H26.437V10.1606H34.4805L37.073 7.34981L39.5718 10.1606H42.1839L38.3872 5.94458L42.1839 1.67938H39.6851L37.1057 4.45793L34.6069 1.67938ZM7.86772 3.11521L6.47291 6.50438H9.26091L7.86772 3.11521ZM28.4543 4.98561V3.43496H33.5521L35.7764 5.91247L33.4535 8.40352H28.4543V6.71228H32.9113V4.98561H28.4543Z" fill="#BD8737"/>
</svg>
