<svg width="31" height="18" viewBox="0 0 31 18" fill="none" xmlns="http://www.w3.org/2000/svg">
<path d="M14.9524 1.92773C14.8331 2.01855 14.7168 2.1123 14.6025 2.20898C12.6552 3.85938 11.4229 6.28809 11.4229 9C11.4229 11.7109 12.6552 14.1396 14.6025 15.79C14.7168 15.8867 14.8331 15.9805 14.9524 16.0723C15.0707 15.9805 15.1881 15.8867 15.3024 15.79C17.2486 14.1396 18.482 11.7109 18.482 9C18.482 6.28809 17.2486 3.85938 15.3024 2.20898C15.1881 2.1123 15.0707 2.01855 14.9524 1.92773ZM20.6628 0C18.7717 0 17.012 0.553711 15.548 1.50391C15.6222 1.56348 15.6984 1.62207 15.7706 1.68359C17.9485 3.52832 19.1969 6.19531 19.1969 9C19.1969 11.8037 17.9485 14.4707 15.7716 16.3154C15.6984 16.376 15.6222 16.4355 15.548 16.4951C17.012 17.4453 18.7717 18 20.6628 18C25.7666 18 29.9038 13.9697 29.9038 9C29.9038 4.0293 25.7666 0 20.6628 0ZM14.1332 16.3154C14.2054 16.376 14.2816 16.4355 14.3568 16.4951C12.8918 17.4453 11.1331 18 9.24098 18C4.13718 18 0 13.9697 0 9C0 4.0293 4.13718 0 9.24098 0C11.1331 0 12.8918 0.553711 14.3568 1.50391C14.2816 1.56348 14.2054 1.62207 14.1332 1.68359C11.9563 3.52832 10.7079 6.19531 10.7079 9C10.7079 11.8047 11.9563 14.4707 14.1332 16.3154Z" fill="#BD8737"/>
</svg>
