<svg width="127" height="129" viewBox="0 0 127 129" fill="none" xmlns="http://www.w3.org/2000/svg">
<path d="M127 65.0068C127 53.4782 122.817 42.7576 117.457 33.4473C111.925 23.8395 103.838 16.2223 94.2656 10.6508C84.9969 5.26666 74.5218 0 63.0375 0C51.5532 0 41.4839 5.98651 32.2189 11.3854C22.6688 16.9312 13.21 23.2923 7.67813 32.8964C2.31807 42.203 0 53.4709 0 65.0068C0 76.5428 1.61241 88.211 6.97613 97.5213C12.5044 107.122 22.4969 113.354 32.058 118.911C41.3157 124.288 51.5532 129 63.0375 129C74.5218 129 84.9165 124.574 94.1815 119.187C103.743 113.633 113.311 106.967 118.843 97.3633C124.203 88.0567 127 76.5281 127 65.0068Z" fill="#4E4A33"/>
<path d="M77.5625 47.9375C76.7341 47.9375 76.0625 48.6091 76.0625 49.4375C76.0625 50.266 76.7341 50.9375 77.5625 50.9375V47.9375ZM90.043 49.4375V50.9376L90.0527 50.9375L90.043 49.4375ZM92.2109 50.9024L90.8156 51.453L90.8182 51.4595L92.2109 50.9024ZM96.3125 61.1563H97.8125C97.8125 60.9655 97.7761 60.7764 97.7052 60.5992L96.3125 61.1563ZM30.6875 66.6875C29.8591 66.6875 29.1875 67.3591 29.1875 68.1875C29.1875 69.0159 29.8591 69.6875 30.6875 69.6875V66.6875ZM77.5625 69.6875C78.3909 69.6875 79.0625 69.0159 79.0625 68.1875C79.0625 67.3591 78.3909 66.6875 77.5625 66.6875V69.6875ZM30.6875 79.9062H29.1875H30.6875ZM33.0312 44.75V46.25V44.75ZM77.5625 44.75H79.0625C79.0625 43.9216 78.3909 43.25 77.5625 43.25V44.75ZM76.0625 76.1562C76.0625 76.9847 76.7341 77.6562 77.5625 77.6562C78.3909 77.6562 79.0625 76.9847 79.0625 76.1562H76.0625ZM77.5625 59.6562C76.7341 59.6562 76.0625 60.3278 76.0625 61.1562C76.0625 61.9847 76.7341 62.6562 77.5625 62.6562L77.5625 59.6562ZM77.5625 50.9375H90.043V47.9375H77.5625V50.9375ZM90.0527 50.9375C90.2171 50.9364 90.3779 50.9851 90.514 51.0771L92.1936 48.5913C91.5559 48.1605 90.8028 47.9326 90.0332 47.9376L90.0527 50.9375ZM90.514 51.0771C90.6502 51.1691 90.7553 51.3001 90.8156 51.453L93.6062 50.3518C93.3237 49.6359 92.8313 49.0222 92.1936 48.5913L90.514 51.0771ZM90.8182 51.4595L94.9198 61.7134L97.7052 60.5992L93.6037 50.3453L90.8182 51.4595ZM30.6875 69.6875H77.5625V66.6875H30.6875V69.6875ZM86.6094 82.25C86.6094 85.3048 84.1329 87.7812 81.0781 87.7812V90.7812C85.7898 90.7812 89.6094 86.9617 89.6094 82.25H86.6094ZM81.0781 87.7812C78.0233 87.7812 75.5469 85.3048 75.5469 82.25H72.5469C72.5469 86.9617 76.3664 90.7812 81.0781 90.7812V87.7812ZM75.5469 82.25C75.5469 79.1952 78.0233 76.7188 81.0781 76.7188V73.7188C76.3664 73.7188 72.5469 77.5383 72.5469 82.25H75.5469ZM81.0781 76.7188C84.1329 76.7188 86.6094 79.1952 86.6094 82.25H89.6094C89.6094 77.5383 85.7898 73.7188 81.0781 73.7188V76.7188ZM51.4531 82.25C51.4531 85.3048 48.9767 87.7812 45.9219 87.7812V90.7812C50.6336 90.7812 54.4531 86.9617 54.4531 82.25H51.4531ZM45.9219 87.7812C42.8671 87.7812 40.3906 85.3048 40.3906 82.25H37.3906C37.3906 86.9617 41.2102 90.7812 45.9219 90.7812V87.7812ZM40.3906 82.25C40.3906 79.1952 42.8671 76.7188 45.9219 76.7188V73.7188C41.2102 73.7188 37.3906 77.5383 37.3906 82.25H40.3906ZM45.9219 76.7188C48.9767 76.7188 51.4531 79.1952 51.4531 82.25H54.4531C54.4531 77.5383 50.6336 73.7188 45.9219 73.7188V76.7188ZM74.0469 80.75H52.9531V83.75H74.0469V80.75ZM38.8906 80.75H33.0312V83.75H38.8906V80.75ZM33.0312 80.75C32.8075 80.75 32.5929 80.6611 32.4346 80.5029L30.3133 82.6242C31.0342 83.345 32.0118 83.75 33.0312 83.75V80.75ZM32.4346 80.5029C32.2764 80.3446 32.1875 80.13 32.1875 79.9062H29.1875C29.1875 80.9257 29.5925 81.9034 30.3133 82.6242L32.4346 80.5029ZM32.1875 79.9062V47.0938H29.1875V79.9062H32.1875ZM32.1875 47.0938C32.1875 46.87 32.2764 46.6554 32.4346 46.4971L30.3133 44.3758C29.5925 45.0967 29.1875 46.0743 29.1875 47.0938H32.1875ZM32.4346 46.4971C32.5929 46.3389 32.8075 46.25 33.0312 46.25V43.25C32.0118 43.25 31.0342 43.655 30.3133 44.3758L32.4346 46.4971ZM33.0312 46.25H77.5625V43.25H33.0312V46.25ZM76.0625 44.75V76.1562H79.0625V44.75H76.0625ZM77.5625 62.6562L96.3125 62.6563L96.3125 59.6563L77.5625 59.6562L77.5625 62.6562ZM94.8125 61.1563V79.9062H97.8125V61.1563H94.8125ZM94.8125 79.9062C94.8125 80.13 94.7236 80.3446 94.5654 80.5029L96.6867 82.6242C97.4075 81.9034 97.8125 80.9257 97.8125 79.9062H94.8125ZM94.5654 80.5029C94.4071 80.6611 94.1925 80.75 93.9688 80.75V83.75C94.9882 83.75 95.9658 83.345 96.6867 82.6242L94.5654 80.5029ZM93.9688 80.75H88.1094V83.75H93.9688V80.75Z" fill="#FBF0DF"/>
</svg>
