<svg width="130" height="127" viewBox="0 0 130 127" fill="none" xmlns="http://www.w3.org/2000/svg">
<path d="M129.333 62.6164C129.333 50.8341 124.67 40.1569 119.166 30.64C113.486 20.8256 105.163 13.6182 95.3484 7.93812C85.8315 2.43064 75.5655 0 63.7832 0C52.0008 0 41.4852 2.00472 31.9719 7.51221C22.1539 13.1886 13.6687 20.5907 7.99233 30.405C2.48484 39.9219 0.333252 50.8341 0.333252 62.6164C0.333252 74.3988 0.700418 86.3427 6.2079 95.856C11.8843 105.674 22.5137 111.416 32.3317 117.096C41.845 122.604 52.0008 126.257 63.7832 126.257C75.5655 126.257 87.6489 125.931 97.1585 120.423C106.977 114.747 114.39 104.929 120.07 95.1106C125.573 85.5973 129.333 74.3988 129.333 62.6164Z" fill="#4E4A33"/>
<path d="M37.3333 44.6875V82.1875C37.3333 83.4307 37.8271 84.623 38.7062 85.5021C39.5853 86.3811 40.7775 86.875 42.0208 86.875H88.8958C89.5174 86.875 90.1135 86.6281 90.553 86.1885C90.9926 85.749 91.2395 85.1529 91.2395 84.5312V51.7188C91.2395 51.0971 90.9926 50.501 90.553 50.0615C90.1135 49.6219 89.5174 49.375 88.8958 49.375H42.0208C40.7775 49.375 39.5853 48.8811 38.7062 48.0021C37.8271 47.123 37.3333 45.9307 37.3333 44.6875ZM37.3333 44.6875C37.3333 43.4443 37.8271 42.252 38.7062 41.3729C39.5853 40.4939 40.7775 40 42.0208 40H81.8645" stroke="#FBF0DF" stroke-width="3" stroke-linecap="round" stroke-linejoin="round"/>
<path d="M78.3489 71.6406C80.2905 71.6406 81.8645 70.0666 81.8645 68.125C81.8645 66.1834 80.2905 64.6094 78.3489 64.6094C76.4073 64.6094 74.8333 66.1834 74.8333 68.125C74.8333 70.0666 76.4073 71.6406 78.3489 71.6406Z" fill="#FBF0DF"/>
</svg>
