<svg width="130" height="124" viewBox="0 0 130 124" fill="none" xmlns="http://www.w3.org/2000/svg">
<path d="M129.667 62.7686C129.667 51.3713 125.351 40.3114 120.024 31.109C114.533 21.6119 105.679 14.5689 96.1852 9.08871C86.9722 3.75056 76.5836 0 65.1863 0C54.1814 0.0457051 43.3843 2.99986 33.889 8.56306C24.3954 14.0539 17.2992 22.4607 11.8083 31.965C6.48082 41.1567 0.666748 51.3713 0.666748 62.7686C0.666748 74.1659 6.40979 84.4337 11.7337 93.6254C17.2282 103.123 25.2869 109.942 34.7805 115.433C43.9864 120.76 53.7854 123.541 65.1863 123.541C76.5871 123.541 87.8388 123.271 97.0412 117.947C106.535 112.453 114.519 103.918 120.013 94.4245C125.33 85.2186 129.667 74.1659 129.667 62.7686Z" fill="#4E4A33"/>
<path d="M65.1667 83.5935C69.8542 83.5935 77.6179 83.5349 86.5242 78.3787C95.4304 73.2224 98.3308 66.8064 99.239 63.4959C99.3227 63.1976 99.3456 62.8857 99.3065 62.5784C99.2673 62.2712 99.1669 61.9749 99.0112 61.7072C98.8555 61.4394 98.6476 61.2057 98.3999 61.0197C98.1522 60.8338 97.8697 60.6995 97.5691 60.6248C95.4304 60.0681 91.6804 59.5701 86.8757 60.7127" stroke="#F5F2EA" stroke-width="3" stroke-linecap="round" stroke-linejoin="round"/>
<path d="M43.4592 60.6837C38.6545 59.5704 34.9045 60.0684 32.7658 60.6251C32.4652 60.6998 32.1827 60.8341 31.935 61.0201C31.6873 61.206 31.4794 61.4397 31.3237 61.7075C31.168 61.9752 31.0676 62.2715 31.0284 62.5787C30.9893 62.886 31.0122 63.1979 31.0959 63.4962C32.0041 66.8067 34.9045 73.252 43.8107 78.379C52.717 83.5059 60.4806 83.5938 65.1681 83.5938" stroke="#F5F2EA" stroke-width="3" stroke-linecap="round" stroke-linejoin="round"/>
<path d="M65.1667 83.5939C65.1667 83.5939 76.8855 77.2072 76.8855 60.1564C76.8855 46.797 69.6785 40.0001 66.573 37.6564C66.1654 37.3565 65.6727 37.1948 65.1667 37.1948C64.6608 37.1948 64.1681 37.3565 63.7605 37.6564C60.655 40.0001 53.448 46.797 53.448 60.1564C53.448 77.2072 65.1667 83.5939 65.1667 83.5939Z" stroke="#F5F2EA" stroke-width="3" stroke-linecap="round" stroke-linejoin="round"/>
<path d="M65.1667 83.5933C68.6824 82.8316 78.1453 77.4996 83.8289 67.6558C89.5125 57.8121 88.1062 49.9898 86.9929 46.5621C86.8227 46.0108 86.4502 45.5443 85.9502 45.2563C85.4503 44.9683 84.8599 44.8801 84.2976 45.0093C80.9338 45.7627 77.7871 47.2759 75.0984 49.4332" stroke="#F5F2EA" stroke-width="3" stroke-linecap="round" stroke-linejoin="round"/>
<path d="M55.2364 49.4332C52.5477 47.2759 49.401 45.7627 46.0372 45.0093C45.4749 44.8801 44.8845 44.9683 44.3845 45.2563C43.8846 45.5443 43.5121 46.0108 43.3419 46.5621C42.2286 49.9898 40.8223 57.8414 46.5059 67.6558C52.1895 77.4703 61.6524 82.8316 65.168 83.5933" stroke="#F5F2EA" stroke-width="3" stroke-linecap="round" stroke-linejoin="round"/>
</svg>
