<svg width="129" height="129" viewBox="0 0 129 129" fill="none" xmlns="http://www.w3.org/2000/svg">
<path d="M128.155 63.293C128.155 51.6337 123.599 41.4893 118.147 32.0738C112.528 22.3622 105.425 14.1047 95.7134 8.48582C86.111 2.88527 75.1852 -0.0444453 64.0691 0.000509671C52.4136 0.000509671 42.1895 3.63382 32.774 9.08188C23.0624 14.7008 13.9127 21.3789 8.29382 31.1019C2.84576 40.506 0.844971 51.6337 0.844971 63.293C0.844971 74.9522 4.64153 85.0434 10.0972 94.4513C15.7161 104.163 21.6539 114.319 31.3579 119.938C40.7734 125.386 52.406 129 64.0615 129C75.7169 129 87.4559 125.56 96.8675 120.112C106.579 114.493 112.847 104.413 118.466 94.7019C123.918 85.2864 128.155 74.9522 128.155 63.293Z" fill="#4E4A33"/>
<path d="M93.5344 63.126H84.1594C82.9162 63.126 81.7239 63.6198 80.8449 64.4989C79.9658 65.378 79.4719 66.5703 79.4719 67.8135V79.5322C79.4719 80.7754 79.9658 81.9677 80.8449 82.8468C81.7239 83.7259 82.9162 84.2197 84.1594 84.2197H88.8469C90.0901 84.2197 91.2824 83.7259 92.1615 82.8468C93.0406 81.9677 93.5344 80.7754 93.5344 79.5322M93.5344 63.126V79.5322M93.5344 63.126C93.5346 59.4128 92.7994 55.7362 91.3713 52.3086C89.9433 48.881 87.8506 45.77 85.2141 43.1553C82.5776 40.5405 79.4494 38.4738 76.01 37.0742C72.5706 35.6747 68.8882 34.97 65.175 35.001C61.4644 34.9739 57.7851 35.6814 54.3491 37.0827C50.9131 38.484 47.7884 40.5514 45.155 43.1657C42.5216 45.7801 40.4315 48.8897 39.0053 52.3154C37.5791 55.7411 36.8449 59.4152 36.845 63.126M93.5344 79.5322V86.5639C93.5344 89.0504 92.5467 91.4349 90.7885 93.1931C89.0304 94.9512 86.6458 95.9389 84.1594 95.9389H67.3137M36.845 63.126V79.5322C36.845 80.7754 37.3388 81.9677 38.2179 82.8468C39.097 83.7259 40.2893 84.2197 41.5325 84.2197H46.22C47.4632 84.2197 48.6555 83.7259 49.5345 82.8468C50.4136 81.9677 50.9075 80.7754 50.9075 79.5322V67.8135C50.9075 66.5703 50.4136 65.378 49.5345 64.4989C48.6555 63.6198 47.4632 63.126 46.22 63.126H36.845Z" stroke="#F5F2EA" stroke-width="3" stroke-linecap="round" stroke-linejoin="round"/>
</svg>
