<svg width="108" height="58" viewBox="0 0 108 58" fill="none" xmlns="http://www.w3.org/2000/svg">
<path d="M6.28952 35.2287C3.85907 35.2287 2.38777 36.1741 1.57238 36.9686C0.577997 37.9435 0.0129754 39.2666 0 40.6506C0 42.5659 1.25341 44.6255 4.00283 44.6255H4.1376C4.78677 44.6255 6.34792 44.2859 6.45125 42.6835C6.4546 42.6281 6.4546 42.5725 6.45125 42.5171C6.45206 42.2335 6.37118 41.9556 6.21806 41.7158C6.06494 41.476 5.84591 41.2843 5.58656 41.1629C5.32721 41.0416 5.03825 40.9957 4.75347 41.0305C4.46869 41.0654 4.19984 41.1797 3.97835 41.36C3.75686 41.5402 3.59187 41.7791 3.50268 42.0485C3.41348 42.318 3.40376 42.607 3.47464 42.8818C3.54553 43.1565 3.69409 43.4057 3.90298 43.6001C4.11186 43.7945 4.37244 43.9261 4.65424 43.9796C4.43986 44.0221 4.22144 44.0414 4.00283 44.0373C1.7723 44.0373 0.577288 42.3351 0.577288 40.6506C0.589383 39.4253 1.09072 38.2544 1.97221 37.3925C3.01672 36.3605 4.50374 35.8168 6.27604 35.8168H9.10632V51.1992H6.9297V51.7674H14.4412V51.1992H11.9703V43.9774H12.9182C13.3212 43.9646 13.7246 43.9913 14.1222 44.0573C15.1375 44.2792 15.6047 45.1115 15.6946 46.9758H16.2584V40.4153H15.7058C15.625 41.9556 15.1443 43.0897 14.0728 43.3271C13.6936 43.3895 13.3093 43.4163 12.925 43.407H11.977V35.799H14.3199C18.1969 35.799 18.9112 37.7476 19.037 39.9648L19.0842 40.8081L19.6502 40.7682L19.4706 35.2198L6.28952 35.2287Z" fill="#4E4A33"/>
<path d="M108 50.6577C108 46.3921 105.069 44.5833 101.443 42.4083C99.4328 41.2054 98.1097 40.2822 97.6066 39.0793C97.0293 37.3925 97.8784 35.3485 100.473 35.3485C101.281 35.3323 102.083 35.5002 102.816 35.839C104.669 36.7378 105.799 38.5422 105.918 40.7926L106.205 40.7771H106.493C106.494 40.7697 106.494 40.7622 106.493 40.7549L106.304 34.7937H105.727C105.574 35.3885 105.246 36.0631 104.303 36.1253C103.994 35.8712 103.661 35.6481 103.308 35.4595L103.083 35.3441H103.056C102.308 34.9724 101.483 34.7793 100.646 34.7803H100.608C100.572 34.7803 100.536 34.7803 100.5 34.7803C100.055 34.7873 99.6125 34.85 99.1834 34.9668L99.1161 34.9845C98.9948 35.02 98.869 35.06 98.7432 35.1088L98.6421 35.1465C98.5365 35.1887 98.4287 35.2353 98.3209 35.2886L98.2333 35.333C98.121 35.3907 98.0087 35.4528 97.8986 35.5216L97.8402 35.5616C97.733 35.6301 97.6295 35.7041 97.5302 35.7835L97.4808 35.8212C97.3849 35.9011 97.2906 35.9855 97.1978 36.0742L97.1438 36.1275C97.0652 36.2074 96.9866 36.2939 96.9192 36.3827L96.8181 36.507C96.7687 36.5714 96.7193 36.6402 96.6699 36.7112C96.6205 36.7822 96.5396 36.9109 96.479 37.0175C96.4655 37.0397 96.452 37.0596 96.4408 37.0818C96.3635 37.2209 96.2938 37.3638 96.2319 37.5102L96.2206 37.5346L96.133 37.7565C96.0993 37.8519 96.0634 37.9496 96.0319 38.0517C95.8783 38.5896 95.8027 39.1463 95.8073 39.7051C95.8073 42.7323 98.2782 44.5056 101.25 46.1701C104.395 47.9212 106.549 49.3749 106.549 52.2468C106.555 52.8391 106.442 53.4268 106.216 53.9755C105.99 54.5242 105.656 55.023 105.233 55.4426C104.065 56.4569 102.499 56.8653 101.167 56.8675H101.151C99.5092 56.8675 97.9031 56.2505 96.8518 55.2141C96.4389 54.817 96.1112 54.3417 95.8885 53.8166C95.6658 53.2914 95.5526 52.7273 95.5557 52.158C95.5557 49.8432 97.0832 48.8112 98.5141 48.607C99.909 48.4206 101.538 49.0131 101.96 50.5112C101.96 50.5112 101.978 50.5756 102 50.6799C101.866 50.4979 101.691 50.3501 101.488 50.2486C101.284 50.1471 101.06 50.0948 100.832 50.0962C100.639 50.0887 100.446 50.1208 100.265 50.1906C100.085 50.2603 99.9208 50.3661 99.7838 50.5013C99.6467 50.6365 99.5393 50.7983 99.4685 50.9765C99.3977 51.1546 99.3649 51.3453 99.3721 51.5366C99.3687 51.743 99.4077 51.948 99.4866 52.1392C99.5655 52.3304 99.6829 52.5038 99.8315 52.649C99.9801 52.7941 100.157 52.9081 100.351 52.9839C100.546 53.0597 100.754 53.0958 100.962 53.0901C101.848 53.0901 102.649 52.4398 102.649 51.2103C102.647 50.8297 102.571 50.453 102.425 50.1006C102.264 49.6883 102.016 49.3145 101.697 49.0038C101.379 48.6932 100.998 48.4528 100.578 48.2985C100.509 48.2697 100.437 48.2452 100.365 48.2208L100.295 48.1986C100.205 48.1698 100.111 48.1454 100.015 48.1232H99.9966C99.9 48.101 99.8012 48.081 99.6978 48.0655H99.6776C99.5229 48.0414 99.3669 48.0265 99.2104 48.0211H98.9251L98.6533 48.0344L98.4961 48.0499H98.4332L98.2872 48.0744C98.0412 48.1148 97.7997 48.1787 97.5661 48.2652L97.483 48.2941C97.4134 48.3229 97.3438 48.3496 97.2764 48.3806C96.0567 48.9244 94.9762 50.1073 94.9762 52.1535C94.9731 52.7978 95.1011 53.4362 95.3527 54.0306C95.6043 54.625 95.9743 55.1633 96.4408 55.6135C96.9204 56.0786 97.4754 56.4612 98.0828 56.7454L98.2557 56.8253C98.7328 57.0376 99.2334 57.194 99.7473 57.2914L99.8416 57.3091C100.268 57.3874 100.7 57.4268 101.133 57.4268H101.149C102.58 57.4268 104.258 56.9829 105.534 55.9154C106.994 54.7768 107.991 53.0036 107.991 50.651" fill="#4E4A33"/>
<path d="M93.4802 46.8382C93.3117 49.7233 91.8809 51.2037 88.5384 51.2037H85.971V43.7111H86.9166C87.3167 43.7027 87.7167 43.7302 88.1117 43.7932C89.1651 43.9952 89.5919 44.8385 89.684 46.705H90.2613V40.1446H89.684C89.6009 41.6826 89.1359 42.8233 88.06 43.0608C87.681 43.1251 87.2966 43.1526 86.9121 43.1429H85.9665V35.7879H88.5497C92.3908 35.7879 93.1433 37.6655 93.287 39.947L93.3364 40.7859H93.9092L93.7183 35.2375H80.9146V35.7879H83.0913V51.2059H80.9236V51.7674H93.8306L94.1047 45.9504L93.5274 45.9304L93.4802 46.8382Z" fill="#4E4A33"/>
<path d="M6.50067 18.6655C4.54418 17.4959 3.23686 16.5926 2.70899 15.4297C2.06656 13.7296 2.89542 11.6146 5.53028 11.6146C6.33951 11.5977 7.14185 11.7648 7.87537 12.1029C9.7218 12.9906 10.8494 14.8016 10.9685 17.0454L11.2448 17.0321H11.53C11.5311 17.0254 11.5311 17.0187 11.53 17.0121L11.3413 11.0642H10.7708C10.6181 11.6568 10.2901 12.3314 9.34892 12.3958C9.0422 12.1405 8.70947 11.9174 8.35607 11.73C8.28569 11.69 8.21082 11.6523 8.13145 11.6168L8.12246 11.5968H8.11123C7.3619 11.2324 6.53615 11.0476 5.701 11.0575H5.55499C5.11067 11.0634 4.66898 11.1261 4.24093 11.244L4.17579 11.2617C4.05225 11.2972 3.9287 11.3372 3.80291 11.3838L3.70408 11.4215C3.59626 11.4637 3.49068 11.5125 3.38286 11.5635L3.29301 11.6079C3.18295 11.6656 3.06839 11.7278 2.96057 11.7988L2.90216 11.8365C2.79493 11.905 2.69146 11.9791 2.59218 12.0585L2.54276 12.0962C2.44842 12.1739 2.35408 12.2582 2.26198 12.347L2.20807 12.4002C2.1272 12.4801 2.05083 12.5667 1.98344 12.6555L1.88236 12.7798C1.83294 12.8441 1.78353 12.9129 1.73411 12.9839C1.68469 13.055 1.60383 13.1837 1.54318 13.288C1.54318 13.3102 1.51847 13.3324 1.50499 13.3546C1.42892 13.4931 1.35995 13.6353 1.29834 13.7807C1.29368 13.7884 1.28991 13.7966 1.2871 13.8051C1.25566 13.8783 1.22646 13.9516 1.1995 14.027C1.17255 14.1025 1.12987 14.2179 1.09842 14.32C0.94477 14.8571 0.869139 15.4131 0.873794 15.9712C0.873794 18.9895 3.34468 20.7584 6.303 22.4207C9.44775 24.1673 11.5907 25.6166 11.5907 28.4818C11.5968 29.0714 11.4844 29.6563 11.26 30.2026C11.0356 30.7489 10.7036 31.2458 10.2834 31.6644C9.11755 32.6808 7.55191 33.0892 6.21988 33.0936H6.20641C4.56664 33.0936 2.96506 32.4766 1.91606 31.4446C1.50403 31.0479 1.17712 30.5732 0.954823 30.0489C0.732529 29.5246 0.619409 28.9614 0.622213 28.393C0.622213 26.0849 2.14742 25.064 3.57379 24.8642C4.96647 24.6756 6.59052 25.2681 7.01281 26.7618C7.01281 26.7618 7.03303 26.8284 7.05998 26.9415C6.92737 26.7565 6.75154 26.6058 6.54742 26.5023C6.34329 26.3988 6.11689 26.3454 5.88744 26.3467C5.69405 26.3396 5.50124 26.3719 5.32109 26.4418C5.14094 26.5117 4.97733 26.6175 4.84049 26.7527C4.70364 26.8879 4.59652 27.0496 4.52582 27.2276C4.45512 27.4055 4.42237 27.596 4.42962 27.7871C4.42557 27.9935 4.46401 28.1986 4.54259 28.39C4.62117 28.5813 4.73826 28.7548 4.88676 28.9001C5.03526 29.0454 5.21207 29.1593 5.40648 29.2351C5.60089 29.3108 5.80884 29.3467 6.01772 29.3407C6.9005 29.3407 7.70017 28.6926 7.70017 27.4675C7.69759 27.0869 7.62135 26.7102 7.47554 26.3578C7.31525 25.9462 7.06809 25.573 6.7505 25.263C6.43292 24.9531 6.05218 24.7135 5.63361 24.5602L5.42022 24.4847L5.35283 24.4625C5.26073 24.4337 5.16864 24.407 5.07205 24.3848H5.05408C4.95749 24.3626 4.85865 24.3449 4.75532 24.3271H4.73062C4.57649 24.305 4.42128 24.2909 4.26564 24.285H3.98037C3.89052 24.285 3.80067 24.2894 3.71082 24.2983L3.55358 24.3138H3.48844L3.34468 24.3382C3.09896 24.379 2.85758 24.4422 2.62363 24.5269L2.54052 24.5579C2.47313 24.5846 2.40349 24.6112 2.33611 24.6423C1.11864 25.186 0.0404326 26.3667 0.0404326 28.4152C0.0368867 29.0584 0.164547 29.6956 0.415791 30.2889C0.667035 30.8823 1.03671 31.4195 1.50275 31.8685C1.98013 32.3321 2.5329 32.7132 3.13802 32.996L3.31098 33.0781C3.7864 33.2906 4.28552 33.4471 4.798 33.5442L4.89235 33.5619C5.31772 33.6391 5.74922 33.6784 6.1817 33.6795H6.19742C7.62379 33.6795 9.29726 33.2357 10.5686 32.1726C12.0467 31.0119 13.0418 29.243 13.0418 26.8949C13.0418 22.6382 10.1216 20.8338 6.50291 18.6655" fill="#4E4A33"/>
<path d="M14.7242 27.998C14.7242 31.9018 17.1232 33.5885 21.0137 33.5885C24.8009 33.5885 26.8652 31.9839 26.8652 27.2212V22.4207C26.8562 18.4769 27.6424 17.1874 29.4394 17.1874H29.6057V16.6326H23.5408V17.1874H23.7542C25.6163 17.1874 26.3149 18.4724 26.3149 22.4207V27.2678C26.3149 31.4424 24.2371 33.0182 21.5978 33.0182C18.6372 33.0182 17.6106 31.276 17.6106 27.9624V17.1874H19.7603V16.6326H12.5723V17.1874H14.7444L14.7242 27.998Z" fill="#4E4A33"/>
<path d="M38.265 32.5699H35.8053V26.1115C36.5498 26.3227 37.3221 26.4222 38.0965 26.4067C42.7755 26.4067 44.231 23.9321 44.231 21.6306C44.231 18.6123 41.8208 16.6326 37.6922 16.6326H30.7692V17.1874H32.9413V32.5699H30.7692V33.1402H38.265V32.5699ZM35.8053 17.1874H36.8094C40.1631 17.1874 41.093 18.9785 41.093 21.513C41.093 23.9077 40.4483 25.9828 37.5484 25.9828C36.9569 25.9918 36.3679 25.904 35.8053 25.7231V17.1874Z" fill="#4E4A33"/>
<path d="M46.4032 32.5699H44.231V33.1402H57.1088L57.3829 27.3388L56.8078 27.3166L56.7607 28.2044C56.5922 31.0895 55.1636 32.561 51.8346 32.561H49.2671V25.095H50.2106C50.6106 25.0866 51.0106 25.1141 51.4056 25.1771C52.4546 25.3769 52.8814 26.218 52.978 28.0823H53.553V21.5374H52.978C52.8926 23.071 52.4299 24.2006 51.3562 24.4447C50.9779 24.5092 50.5942 24.5367 50.2106 24.5269H49.2671V17.1874H51.8458C55.6757 17.1874 56.4282 19.0606 56.563 21.3376L56.6102 22.1743H57.1829L56.992 16.6437H44.231V17.1985H46.4032V32.5699Z" fill="#4E4A33"/>
<path d="M65.4851 32.5699H63.313V25.0751C71.2602 25.0751 67.9313 33.6551 74.7419 33.6551C76.6872 33.6551 77.6621 32.2103 77.6621 30.9919C77.6621 29.7735 76.8265 29.152 75.9302 29.152C75.7236 29.1483 75.5184 29.1861 75.3271 29.2631C75.1357 29.3402 74.9622 29.4548 74.8171 29.6001C74.6719 29.7454 74.5582 29.9183 74.4827 30.1083C74.4072 30.2983 74.3716 30.5015 74.378 30.7056C74.3725 30.9029 74.4076 31.0992 74.4811 31.2827C74.5547 31.4661 74.6651 31.633 74.8059 31.773C74.9466 31.9131 75.1146 32.0235 75.2997 32.0975C75.4849 32.1715 75.6833 32.2076 75.883 32.2037C76.6108 32.2037 76.9478 31.7087 77.1275 31.1073C77.0443 32.1215 76.4087 33.1047 74.9284 33.1047C69.9327 33.1047 75.0721 24.9663 65.4334 24.9663C65.4469 24.9663 65.4582 24.9419 65.4334 24.9419C67.9156 24.8132 71.258 24.0697 71.258 20.8383C71.258 18.2438 69.0499 16.6415 65.4941 16.6415H58.2769V17.1963H60.449V32.5699H58.2769V33.1402H65.4851V32.5699ZM63.313 17.1874H64.4114C67.1923 17.1874 68.1469 18.5412 68.1469 20.9825C68.1469 22.7159 67.646 23.7612 66.5117 24.2339C65.8552 24.4708 65.1594 24.583 64.4608 24.5646C64.0655 24.5646 63.6836 24.5513 63.313 24.5291V17.1874Z" fill="#4E4A33"/>
<path d="M72.3362 35.7968H74.5151V51.2059H72.3362V51.7763H79.5624V51.2059H77.3858V35.7968H79.5624V35.2287H72.3362V35.7968Z" fill="#4E4A33"/>
<path d="M63.1018 35.2287H55.7453V35.7879H57.922V51.197H56.1384C54.6874 51.197 53.4811 51.6142 52.6455 52.3821C52.2961 52.6989 52.0161 53.0832 51.823 53.5111C51.6298 53.939 51.5275 54.4015 51.5224 54.8701C51.5224 56.1773 52.3804 57.5 54.0202 57.5C54.7817 57.5 55.341 57.3069 55.6824 56.9252C55.911 56.6635 56.0292 56.325 56.0126 55.9797C56.0129 55.7531 55.9571 55.5299 55.8501 55.3295C55.743 55.129 55.588 54.9575 55.3985 54.8299C55.2089 54.7023 54.9907 54.6224 54.7627 54.5972C54.5348 54.572 54.3041 54.6023 54.0907 54.6854C53.8773 54.7686 53.6878 54.902 53.5386 55.0741C53.3894 55.2462 53.285 55.4517 53.2347 55.6728C53.1843 55.8939 53.1894 56.1238 53.2496 56.3425C53.3098 56.5612 53.4232 56.762 53.58 56.9274C52.5422 56.7055 52.0615 55.7667 52.0615 54.8745C52.0657 54.4794 52.152 54.0894 52.3151 53.7286C52.4782 53.3679 52.7145 53.044 53.0094 52.7772C53.7417 52.1114 54.8221 51.7718 56.1339 51.7718H63.7443C69.9529 51.7718 72.3317 47.5151 72.3317 43.6156C72.3317 39.1947 69.3419 35.2242 63.0973 35.2242M63.8521 51.2037H60.7927V35.7879H63.1849C68.3648 35.7879 69.1914 39.734 69.1914 43.7777C69.1914 47.3464 68.5557 51.197 63.8566 51.197" fill="#4E4A33"/>
<path d="M90.2658 0.5C90.2658 4.51483 89.2325 16.5682 79.5017 16.5682C89.2325 16.5682 90.2658 28.6216 90.2658 32.6364C90.2658 28.6216 91.2991 16.5682 101.03 16.5682C91.2991 16.5682 90.2658 4.51483 90.2658 0.5Z" fill="#4E4A33"/>
<path d="M55.1366 43.4891C55.1366 39.0815 51.929 34.7803 47.0838 34.7803C42.3487 34.7803 38.9141 38.8573 38.9141 43.4669C38.9141 47.6837 41.8343 52.2246 47.0366 52.2246C52.2389 52.2246 55.1366 47.686 55.1366 43.4891ZM47.0366 51.6653H47.0164C46.1438 51.6598 45.2913 51.4056 44.5614 50.9332C43.8314 50.4608 43.2549 49.7902 42.9012 49.002C42.2701 47.5861 42.0611 45.8639 42.0611 44.3858C42.0538 43.8716 42.0846 43.3575 42.1532 42.8477L42.2386 42.8256C42.6445 43.2598 43.1397 43.6033 43.691 43.833C44.2423 44.0627 44.8369 44.1732 45.435 44.1572C47.9059 44.1572 49.1189 42.5015 49.1189 40.9657C49.1189 39.7717 48.3889 39.0149 47.4185 39.0149C47.2178 39.0068 47.0177 39.0398 46.8305 39.1116C46.6433 39.1835 46.4732 39.2927 46.3307 39.4325C46.1882 39.5722 46.0764 39.7395 46.0023 39.9239C45.9282 40.1083 45.8933 40.3058 45.9 40.5041C45.8907 40.693 45.9209 40.8817 45.9887 41.0585C46.0565 41.2354 46.1604 41.3965 46.2941 41.5318C46.4277 41.6672 46.5881 41.7739 46.7654 41.8453C46.9426 41.9167 47.1328 41.9512 47.3241 41.9467C47.5379 41.9522 47.7504 41.9115 47.9467 41.8276C48.143 41.7436 48.3184 41.6184 48.4607 41.4606C48.2563 42.6524 47.2051 43.2916 46.2145 43.4891C45.3425 43.6759 44.4321 43.5614 43.6352 43.1647C42.8384 42.768 42.2035 42.1133 41.8365 41.3097C41.67 40.8084 41.5873 40.2837 41.5917 39.7562V39.7229C41.6068 38.9174 41.8563 38.1333 42.3104 37.4643C42.7645 36.7952 43.404 36.2695 44.1524 35.9499C44.4129 35.8362 44.6799 35.7376 44.9521 35.6548C45.9755 35.3232 47.0813 35.3356 48.0968 35.6903C50.9024 36.7378 51.9784 40.1645 51.9784 43.9752C51.9784 45.7817 51.7178 47.7592 50.9518 49.2795C50.5866 49.9943 50.0285 50.5954 49.3391 51.0164C48.6498 51.4375 47.856 51.662 47.0456 51.6653H47.0254" fill="#4E4A33"/>
<path d="M36.9532 43.4891C36.9532 39.0815 33.7478 34.7803 28.9026 34.7803C24.1652 34.7803 20.7329 38.8573 20.7329 43.4669C20.7329 47.6837 23.6531 52.2246 28.8554 52.2246C34.0577 52.2246 36.9419 47.686 36.9419 43.4891H36.9532ZM28.8666 51.6653H28.8442C27.9716 51.6595 27.1193 51.4052 26.3894 50.9328C25.6595 50.4605 25.083 49.7901 24.729 49.002C24.1001 47.5861 23.8889 45.8639 23.8889 44.3858C23.8827 43.8716 23.9135 43.3576 23.981 42.8477L24.0664 42.8256C24.4723 43.2598 24.9675 43.6033 25.5188 43.833C26.0701 44.0627 26.6647 44.1732 27.2628 44.1572C29.7337 44.1572 30.9467 42.5015 30.9467 40.9657C30.9467 39.7717 30.2166 39.0149 29.2485 39.0149C29.0479 39.0068 28.8477 39.0398 28.6605 39.1116C28.4734 39.1835 28.3032 39.2927 28.1607 39.4325C28.0182 39.5722 27.9064 39.7395 27.8323 39.9239C27.7582 40.1083 27.7234 40.3058 27.73 40.5041C27.7204 40.693 27.7503 40.8819 27.818 41.0589C27.8857 41.2359 27.9896 41.3971 28.1233 41.5326C28.257 41.668 28.4176 41.7747 28.595 41.846C28.7724 41.9172 28.9627 41.9515 29.1542 41.9467C29.3658 41.9508 29.5759 41.9095 29.7698 41.8256C29.9637 41.7417 30.1368 41.6171 30.2773 41.4606C30.0729 42.6524 29.0216 43.2916 28.031 43.4891C27.1587 43.676 26.2479 43.5616 25.4508 43.1649C24.6536 42.7683 24.0182 42.1134 23.6508 41.3097C23.4843 40.8084 23.4016 40.2837 23.406 39.7562V39.7229C23.4216 38.9176 23.6713 38.1337 24.1254 37.4647C24.5794 36.7958 25.2186 36.2699 25.9667 35.9499C26.2272 35.8362 26.4942 35.7376 26.7664 35.6548C27.7898 35.3232 28.8956 35.3356 29.9111 35.6903C32.719 36.7378 33.7927 40.1645 33.7927 43.9752C33.7927 45.7817 33.5344 47.7592 32.7661 49.2795C32.4011 49.9944 31.843 50.5957 31.1536 51.0168C30.4642 51.4378 29.6704 51.6623 28.8599 51.6653H28.8419" fill="#4E4A33"/>
</svg>
