<svg width="630" height="350" viewBox="0 0 630 350" fill="none" xmlns="http://www.w3.org/2000/svg">
<path d="M569.506 0H60.494C27.0841 0 0 27.0841 0 60.494V289.506C0 322.916 27.0841 350 60.494 350H569.506C602.916 350 630 322.916 630 289.506V60.494C630 27.0841 602.916 0 569.506 0Z" fill="#FFB3C7"/>
<path fill-rule="evenodd" clip-rule="evenodd" d="M571.017 205.436C562.774 205.436 556.093 212.178 556.093 220.496C556.093 228.812 562.774 235.555 571.017 235.555C579.259 235.555 585.942 228.812 585.942 220.496C585.942 212.177 579.26 205.436 571.017 205.436ZM521.915 193.793C521.915 182.405 512.269 173.176 500.37 173.176C488.471 173.176 478.824 182.406 478.824 193.793C478.824 205.18 488.47 214.412 500.37 214.412C512.27 214.412 521.915 205.18 521.915 193.793ZM521.995 153.722H545.772V233.861H521.995V228.739C515.277 233.362 507.169 236.079 498.423 236.079C475.279 236.079 456.517 217.147 456.517 193.792C456.517 170.437 475.279 151.507 498.423 151.507C507.169 151.507 515.277 154.224 521.995 158.848V153.722V153.722ZM331.707 164.16V153.723H307.362V233.86H331.761V196.445C331.761 183.822 345.32 177.037 354.728 177.037C354.825 177.037 354.915 177.046 355.011 177.048V153.729C345.355 153.729 336.473 157.901 331.706 164.162L331.707 164.16ZM271.064 193.793C271.064 182.406 261.417 173.176 249.518 173.176C237.619 173.176 227.972 182.406 227.972 193.793C227.972 205.18 237.619 214.412 249.518 214.412C261.418 214.412 271.064 205.18 271.064 193.793ZM271.143 153.722H294.922V233.861H271.143V228.739C264.425 233.362 256.317 236.079 247.572 236.079C224.427 236.079 205.665 217.147 205.665 193.792C205.665 170.438 224.427 151.507 247.572 151.507C256.317 151.507 264.425 154.224 271.143 158.848V153.722V153.722ZM414.265 151.567C404.766 151.567 395.776 154.542 389.766 162.752V153.727H366.091V233.861H390.057V191.748C390.057 179.562 398.156 173.594 407.907 173.594C418.358 173.594 424.366 179.894 424.366 191.583V233.861H448.115V182.9C448.115 164.251 433.421 151.568 414.265 151.568V151.567ZM171.029 233.861H195.916V118.01H171.029V233.861ZM61.7012 233.894H88.0548V117.989H61.7012V233.894ZM153.877 117.989C153.877 143.081 144.187 166.423 126.919 183.774L163.347 233.898H130.797L91.2076 179.424L101.425 171.703C118.369 158.895 128.088 139.318 128.088 117.989H153.877L153.877 117.989Z" fill="#0A0B09"/>
</svg>
