<?xml version="1.0" encoding="UTF-8"?>
<svg xmlns="http://www.w3.org/2000/svg" xmlns:xlink="http://www.w3.org/1999/xlink" width="37pt" height="37pt" viewBox="0 0 37 25" version="1.1">
<g id="surface1">
<rect x="0" y="0" width="37" height="25" style="fill:rgb(59.215686%,74.509804%,5.098039%);fill-opacity:1;stroke:none;"/>
<path style=" stroke:none;fill-rule:nonzero;fill:rgb(100%,100%,100%);fill-opacity:1;" d="M 13.617188 5.945312 C 14.6875 6.011719 15.75 6.140625 16.664062 6.519531 C 15.804688 6.847656 15.152344 7.234375 14.40625 7.589844 L 14.996094 5.105469 C 15.460938 6.050781 15.957031 7.054688 16.214844 8.003906 C 15.367188 7.167969 14.5 6.542969 13.617188 5.945312 Z M 13.617188 5.945312 "/>
<path style=" stroke:none;fill-rule:nonzero;fill:rgb(100%,100%,100%);fill-opacity:1;" d="M 18.320312 5.695312 L 20.742188 6.578125 L 18.847656 7.480469 C 19.027344 6.675781 19.234375 5.855469 19.496094 5.003906 C 19.765625 6.046875 20.054688 7.132812 20.25 8.140625 C 19.636719 7.261719 18.96875 6.5 18.320312 5.695312 Z M 18.320312 5.695312 "/>
<path style=" stroke:none;fill-rule:nonzero;fill:rgb(100%,100%,100%);fill-opacity:1;" d="M 23.113281 6.5625 C 23.828125 6.691406 24.578125 6.660156 25.328125 6.566406 C 24.710938 7.125 24.085938 7.679688 23.433594 8.199219 C 23.726562 7.363281 23.992188 6.511719 24.242188 5.640625 C 24.417969 6.496094 24.589844 7.355469 24.761719 8.214844 C 24.25 7.769531 23.675781 7.21875 23.113281 6.5625 Z M 23.113281 6.5625 "/>
<path style=" stroke:none;fill-rule:nonzero;fill:rgb(100%,100%,100%);fill-opacity:1;" d="M 27.964844 6.492188 C 28.554688 6.316406 29.324219 5.867188 29.984375 5.542969 C 29.4375 6.277344 28.882812 6.964844 28.328125 7.617188 C 28.511719 6.867188 28.78125 6.082031 29.019531 5.273438 C 29.203125 5.835938 29.347656 6.355469 29.601562 6.863281 C 29.054688 6.835938 28.507812 6.722656 27.964844 6.492188 Z M 27.964844 6.492188 "/>
<path style=" stroke:none;fill-rule:nonzero;fill:rgb(100%,100%,100%);fill-opacity:1;" d="M 25.890625 10.699219 C 26.890625 10.519531 27.5625 10.214844 28.363281 9.929688 C 27.660156 10.660156 26.835938 11.652344 26.253906 12.121094 L 27.152344 9.460938 C 27.355469 10.203125 27.59375 10.902344 27.832031 11.609375 C 27.15625 11.4375 26.527344 11.101562 25.890625 10.699219 Z M 25.890625 10.699219 "/>
<path style=" stroke:none;fill-rule:nonzero;fill:rgb(100%,100%,100%);fill-opacity:1;" d="M 23.445312 14.035156 C 24.359375 14.257812 25.164062 14.417969 26.117188 14.339844 C 25.519531 14.925781 24.78125 15.292969 24.03125 15.644531 C 24.28125 14.902344 24.53125 14.152344 24.738281 13.328125 C 25.054688 14.167969 25.324219 15.152344 25.683594 15.792969 C 24.789062 15.257812 24.113281 14.648438 23.445312 14.035156 Z M 23.445312 14.035156 "/>
<path style=" stroke:none;fill-rule:nonzero;fill:rgb(100%,100%,100%);fill-opacity:1;" d="M 20.835938 16.195312 C 21.675781 16.558594 22.46875 16.929688 23.351562 17.097656 C 22.710938 17.382812 22.070312 17.664062 21.390625 17.910156 C 21.582031 17.183594 21.75 16.503906 21.976562 15.769531 C 22.261719 16.679688 22.570312 17.582031 22.96875 18.445312 C 22.210938 17.863281 21.484375 17.015625 20.835938 16.195312 Z M 20.835938 16.195312 "/>
<path style=" stroke:none;fill-rule:nonzero;fill:rgb(100%,100%,100%);fill-opacity:1;" d="M 17.402344 17.53125 C 18.257812 17.777344 19.117188 18.15625 19.980469 18.566406 C 19.265625 18.867188 18.5625 19.222656 17.886719 19.644531 C 18.171875 18.742188 18.488281 17.824219 18.679688 16.941406 C 18.941406 17.988281 19.296875 19.082031 19.546875 20.152344 C 19.027344 19.523438 18.113281 18.335938 17.402344 17.53125 Z M 17.402344 17.53125 "/>
<path style=" stroke:none;fill-rule:nonzero;fill:rgb(100%,100%,100%);fill-opacity:1;" d="M 12.273438 18.222656 C 13.257812 18.046875 14.226562 18.003906 15.171875 18.0625 C 14.261719 18.886719 13.519531 19.597656 12.710938 20.355469 C 13.085938 19.15625 13.46875 17.960938 13.839844 16.761719 C 14.074219 17.894531 14.28125 19.09375 14.476562 20.300781 C 13.902344 19.648438 13.054688 18.867188 12.273438 18.222656 Z M 12.273438 18.222656 "/>
<path style=" stroke:none;fill-rule:nonzero;fill:rgb(100%,100%,100%);fill-opacity:1;" d="M 10.472656 9.207031 C 11.585938 8.863281 12.667969 8.84375 13.742188 8.9375 L 11.296875 10.566406 C 11.558594 9.710938 11.8125 8.851562 12.117188 7.996094 C 12.574219 8.832031 12.996094 9.671875 13.335938 10.460938 C 12.566406 9.898438 11.515625 9.535156 10.472656 9.207031 Z M 10.472656 9.207031 "/>
<path style=" stroke:none;fill-rule:nonzero;fill:rgb(100%,100%,100%);fill-opacity:1;" d="M 8.328125 14.015625 C 9.410156 13.457031 10.507812 13.03125 11.59375 13.023438 L 8.96875 15.617188 L 10.027344 12.101562 C 10.417969 13.023438 10.8125 14.046875 11.011719 14.96875 C 10.183594 14.566406 9.316406 14.222656 8.328125 14.015625 Z M 8.328125 14.015625 "/>
<path style=" stroke:none;fill-rule:nonzero;fill:rgb(100%,100%,100%);fill-opacity:1;" d="M 6.429688 20.003906 C 7.035156 19.78125 8.101562 18.933594 8.746094 18.746094 C 10.542969 15.628906 17.742188 11.316406 21.09375 10.96875 C 21.1875 10.957031 21.175781 11.027344 21.097656 11.050781 C 17.582031 12.09375 11.679688 15.347656 9.472656 18.890625 C 8.625 20.25 8.289062 20.449219 7.1875 21.734375 C 7.535156 20.367188 7.898438 19 8.367188 17.59375 C 8.789062 18.660156 9.097656 19.769531 9.40625 20.875 C 8.539062 20.398438 7.492188 20.125 6.429688 20.003906 Z M 6.429688 20.003906 "/>
</g>
</svg>
