<svg width="585" height="351" viewBox="0 0 585 351" fill="none" xmlns="http://www.w3.org/2000/svg">
<path fill-rule="evenodd" clip-rule="evenodd" d="M538.993 3.91724C571.585 3.91724 581.709 27.8271 581.709 44.725V306.778C581.709 323.036 571.582 347.583 538.993 347.583H46.6372C14.3605 347.583 3.91797 323.036 3.91797 306.778V44.725C3.91797 27.8271 14.3605 3.91724 46.6372 3.91724H538.993Z" fill="white"/>
<path fill-rule="evenodd" clip-rule="evenodd" d="M15.6206 19.9949C9.53053 27.4088 7.08461 36.8544 7.08461 44.7251V306.778C7.08461 314.313 9.52235 323.77 15.6302 331.278C21.644 338.671 31.4028 344.415 46.6365 344.415H538.993C554.391 344.415 564.141 338.665 570.108 331.285C576.172 323.787 578.541 314.332 578.541 306.778V44.7251C578.541 36.8344 576.164 27.3918 570.119 19.9876C564.167 12.6979 554.422 7.08461 538.993 7.08461H46.6365C31.3733 7.08461 21.6195 12.692 15.6206 19.9949ZM10.7257 15.9741C18.0172 7.09757 29.6231 0.75 46.6365 0.75H538.993C556.155 0.75 567.768 7.0917 575.026 15.9814C582.191 24.7566 584.876 35.7178 584.876 44.7251V306.778C584.876 315.481 582.182 326.429 575.034 335.268C567.791 344.227 556.183 350.75 538.993 350.75H46.6365C29.5936 350.75 17.9928 344.221 10.7161 335.276C3.53353 326.446 0.75 315.501 0.75 306.778V44.7251C0.75 35.6979 3.52536 24.7396 10.7257 15.9741Z" fill="#2D78BB"/>
<path fill-rule="evenodd" clip-rule="evenodd" d="M177.005 203.171H266.87L317.184 149.292H407.358L330.786 234.727H47.5859V177.665H199.469L177.005 203.171V203.171Z" fill="#2D78BB"/>
<path fill-rule="evenodd" clip-rule="evenodd" d="M407.358 149.291H317.185L266.87 203.483H176.371L252.946 118.048H536.465V174.794H384.578L407.358 149.291V149.291Z" fill="#F8E14B"/>
<path fill-rule="evenodd" clip-rule="evenodd" d="M500.077 97.0084C495.962 99.557 490.587 100.835 485.516 100.835C470.962 100.835 457.988 89.9963 457.988 75.0132C457.988 60.0268 469.698 49.1886 484.567 49.1886C489.949 49.1886 495.962 50.1443 500.077 52.6962V68.635C496.915 65.7645 492.166 64.8088 486.787 64.8088C481.723 64.8088 475.711 68.9536 475.711 75.6471C475.711 81.3848 481.723 84.8924 486.787 84.8924C492.478 84.8924 495.962 84.5739 500.077 81.3881V97.0084V97.0084ZM537.095 84.8924V97.0084C524.121 106.572 509.252 98.6012 509.252 87.4444V65.1307H502.917V50.4629H509.252V38.6689L526.968 29.1016V50.4629H537.095V63.8531H527.92V84.5739C527.917 88.4001 534.245 88.0815 537.095 84.8924V84.8924ZM408.944 66.405L411.795 52.6962C429.511 46.64 454.826 50.1443 454.826 66.0864V99.8789H438.374L437.74 98.2827C430.148 103.065 402.301 105.298 406.097 83.2996C408.31 70.2279 423.186 67.0422 432.361 67.0422C437.11 67.0422 439.008 62.5754 432.995 62.2602C427.609 61.9383 416.855 62.5754 408.944 66.405V66.405ZM110.238 66.405L112.77 52.6962C130.49 46.64 155.804 50.1443 155.804 66.0864V99.8789H139.034L138.719 98.2827C131.442 103.065 102.646 105.298 107.076 83.2996C109.293 70.2279 123.846 67.0422 133.025 67.0422C137.77 67.0422 139.668 62.5754 133.974 62.2602C128.591 61.9383 117.515 62.5754 110.238 66.405V66.405ZM313.07 75.6471C313.07 90.6301 300.723 101.15 285.854 101.15C270.981 101.15 258.325 89.993 258.325 75.0099C258.325 60.3454 270.981 48.8666 285.538 48.8666C300.723 48.87 313.07 60.3454 313.07 75.6471ZM402.932 84.8924V97.0084C389.642 106.572 375.088 98.6012 375.088 87.4444V65.1307H368.753V50.4629H375.088V38.6689L393.119 29.1016V50.4629H402.932V63.8531H393.441V84.5739C393.441 88.4001 400.081 88.0815 402.932 84.8924V84.8924Z" fill="#2D78BB"/>
<path fill-rule="evenodd" clip-rule="evenodd" d="M80.8109 25.5972C97.2628 25.5972 109.288 47.5956 94.1005 61.301C113.088 73.0984 104.543 99.2349 83.3427 99.5569H47.9004V25.5972H80.8109ZM255.159 97.0083C251.044 99.5569 246.299 100.835 240.917 100.835C226.044 100.835 213.388 89.9963 213.388 75.0132C213.388 60.0267 225.099 49.1885 239.652 49.1885C245.031 49.1885 251.041 50.1442 255.159 52.6962V68.635C251.678 65.7644 247.563 64.8087 242.184 64.8087C236.805 64.8087 230.793 68.9536 230.793 75.647C230.793 81.3847 237.121 84.8924 242.184 84.8924C247.563 84.8924 251.044 84.5738 255.159 81.388V97.0083V97.0083ZM209.911 67.6759V99.8754H192.191V72.1393C192.191 62.2568 177.953 62.5754 177.953 72.1393V99.8754H160.233V50.4628H178.271V54.6076C193.14 43.4474 209.911 53.6519 209.911 67.6759V67.6759ZM366.227 67.6759V99.8754H348.504V72.1393C348.504 62.2568 334.266 62.5754 334.266 72.1393V99.8754H316.55V50.4628H334.266V54.6076C349.453 43.4474 366.227 53.6519 366.227 67.6759V67.6759ZM432.994 62.2601C439.007 62.5787 437.109 67.0421 432.36 67.0421C423.185 67.0421 408.309 70.2278 406.096 83.2995C402.297 105.298 430.147 103.065 437.739 98.2826L438.373 99.8788H454.825V66.083C454.825 50.1442 429.51 46.6365 411.794 52.6928L408.943 66.4016C416.854 62.5753 427.608 61.9382 432.994 62.2601V62.2601Z" fill="#2D78BB"/>
<path fill-rule="evenodd" clip-rule="evenodd" d="M133.97 62.2602C139.664 62.5788 137.766 67.0422 133.021 67.0422C123.842 67.0422 109.289 70.2279 107.072 83.2996C102.642 105.298 131.438 103.065 138.715 98.2827L139.03 99.8789H155.801V66.0831C155.801 50.1443 130.489 46.6366 112.766 52.6929L110.234 66.4017C117.515 62.5754 128.591 61.9383 133.97 62.2602ZM285.538 48.87C270.984 48.87 258.325 60.3487 258.325 75.0132C258.325 89.9963 270.981 101.153 285.853 101.153C300.722 101.153 313.069 90.6335 313.069 75.6504C313.069 60.3454 300.722 48.87 285.538 48.87V48.87ZM393.441 84.5739V63.8531H402.931V50.4629H393.119V29.1016L375.088 38.6689V50.4629H368.753V65.1307H375.088V87.4444C375.088 98.6012 389.641 106.572 402.931 97.0084V84.8924C400.081 88.0815 393.441 88.4001 393.441 84.5739V84.5739Z" fill="#2D78BB"/>
<path fill-rule="evenodd" clip-rule="evenodd" d="M47.9004 25.5972V99.5569H83.3393C104.54 99.2383 113.084 73.0984 94.0971 61.301C109.285 47.5923 97.2594 25.5972 80.8075 25.5972H47.9004V25.5972ZM255.159 81.388C251.044 84.5738 247.563 84.8924 242.184 84.8924C237.121 84.8924 230.793 81.388 230.793 75.647C230.793 68.9502 236.802 64.8087 242.184 64.8087C247.563 64.8087 251.678 65.7644 255.159 68.635V52.6962C251.044 50.1442 245.031 49.1885 239.652 49.1885C225.099 49.1885 213.388 60.0267 213.388 75.0132C213.388 89.9963 226.044 100.835 240.917 100.835C246.296 100.835 251.044 99.5602 255.159 97.0083V81.388V81.388ZM178.268 54.6076V50.4628H160.23V99.8754H177.949V72.1393C177.949 62.5754 192.188 62.2568 192.188 72.1393V99.8754H209.908V67.6759C209.911 53.6519 193.14 43.4474 178.268 54.6076V54.6076ZM334.262 54.6076V50.4628H316.546V99.8754H334.262V72.1393C334.262 62.5754 348.501 62.2568 348.501 72.1393V99.8754H366.224V67.6759C366.227 53.6519 349.453 43.4474 334.262 54.6076V54.6076ZM500.076 81.388C495.961 84.5738 492.477 84.8924 486.786 84.8924C481.722 84.8924 475.71 81.388 475.71 75.647C475.71 68.9502 481.722 64.8087 486.786 64.8087C492.165 64.8087 496.914 65.7644 500.076 68.635V52.6962C495.961 50.1442 489.948 49.1885 484.566 49.1885C469.697 49.1885 457.987 60.0267 457.987 75.0132C457.987 89.9963 470.961 100.835 485.515 100.835C490.586 100.835 495.961 99.5602 500.076 97.0083V81.388V81.388ZM527.916 84.5738V63.853H537.091V50.4628H526.963V29.1015L509.251 38.6688V50.4628H502.916V65.1306H509.251V87.4443C509.251 98.6011 524.12 106.572 537.094 97.0083V84.8924C534.244 88.0815 527.916 88.4001 527.916 84.5738V84.5738ZM295.98 75.647C295.98 81.0661 291.231 85.5295 285.852 85.5295C280.474 85.5295 276.044 81.0661 276.044 75.0098C276.044 68.635 280.474 65.1273 285.852 65.1273C291.231 65.1273 295.98 68.635 295.98 75.647Z" fill="#2D78BB"/>
<path fill-rule="evenodd" clip-rule="evenodd" d="M68.1523 69.9093H76.0631C85.8718 69.9093 86.8208 84.8924 76.3783 84.8924H68.1523V69.9093ZM138.081 78.199V84.2586C138.081 90.952 124.792 92.8635 124.792 85.8515C124.792 79.4732 134.285 77.5618 138.081 78.199ZM437.106 78.199V84.2586C437.106 90.952 424.131 92.8635 424.131 85.8515C424.131 79.4732 433.622 77.5618 437.106 78.199ZM76.0664 40.5803C85.2414 44.7251 82.0758 54.6076 76.3816 54.6076H68.1557V40.5803C68.1523 40.2617 73.8498 39.9431 76.0664 40.5803V40.5803Z" fill="#2D78BB"/>
<path fill-rule="evenodd" clip-rule="evenodd" d="M285.853 65.1307C280.474 65.1307 276.044 68.635 276.044 75.0132C276.044 81.0695 280.474 85.5329 285.853 85.5329C291.232 85.5329 295.98 81.0695 295.98 75.6503C295.98 68.635 291.232 65.1307 285.853 65.1307V65.1307ZM424.131 85.8481C424.131 92.8601 437.106 90.9487 437.106 84.2552V78.1956C433.622 77.5618 424.131 79.4732 424.131 85.8481ZM68.1523 40.5803V54.6076H76.3783C82.0758 54.6076 85.2414 44.7251 76.0631 40.5803C73.8498 39.9431 68.1523 40.2617 68.1523 40.5803V40.5803ZM124.792 85.8481C124.792 92.8601 138.081 90.9487 138.081 84.2552V78.1956C134.285 77.5618 124.792 79.4732 124.792 85.8481ZM68.1523 84.8924H76.3783C86.8208 84.8924 85.8718 69.9093 76.0631 69.9093H68.1523V84.8924V84.8924Z" fill="white"/>
<path fill-rule="evenodd" clip-rule="evenodd" d="M267.818 301.356C267.818 284.143 260.853 272.982 243.448 272.982C226.997 272.982 217.184 285.42 217.184 299.444C217.184 314.749 228.895 325.906 245.346 325.906C259.585 325.906 266.865 320.168 266.865 320.168V305.504C260.853 308.693 254.21 310.604 249.461 310.604C239.968 310.604 234.907 308.049 234.907 301.356H267.818V301.356ZM82.0751 303.911L96.629 282.865V324.625H115.616L115.931 252.258H96.629L82.0751 273.938L67.2027 252.258H47.9004L48.219 324.625H67.2027V282.865L82.0751 303.911V303.911ZM288.384 295.618C290.282 291.473 294.394 287.969 299.773 287.969C302.623 287.969 305.785 289.24 308.005 290.836V275.216C306.419 273.304 303.891 272.661 301.359 272.661C296.932 272.661 290.916 275.216 288.384 278.405V273.304H271.299V324.628H288.384V295.618V295.618ZM142.829 321.443C148.842 323.991 156.119 324.947 160.864 324.947C179.217 324.947 184.596 315.383 184.596 307.412C184.596 298.163 175.102 293.069 166.561 291.792C165.294 291.792 161.813 290.836 161.813 289.236C161.813 287.966 162.765 286.369 166.876 286.369C170.357 286.369 176.685 287.647 179.851 289.236L179.22 275.85C174.472 274.257 167.829 272.982 162.765 272.982C152.323 272.982 143.144 279.361 143.144 289.558C143.144 297.529 148.842 301.674 158.017 303.589C161.813 303.911 165.294 305.501 165.294 307.415C165.294 309.964 162.765 310.604 160.23 310.604C158.017 310.604 152.323 311.238 142.829 307.415V321.443V321.443Z" fill="#2D78BB"/>
<path fill-rule="evenodd" clip-rule="evenodd" d="M207.698 309.005V287.969H217.507V274.26H207.064V252.258L189.029 261.829V274.26H182.701V288.925H189.029V311.882C189.029 323.357 203.902 331.007 217.51 321.446V309.008C214.656 311.882 207.698 312.516 207.698 309.005V309.005ZM139.664 323.991V274.26H120.677V323.991H139.664ZM130.17 272.66C135.868 272.66 140.613 267.878 140.613 262.141C140.613 256.725 135.864 252.258 130.17 252.258C124.791 252.258 120.361 256.725 120.361 262.141C120.365 267.882 124.791 272.66 130.17 272.66ZM442.169 321.443C448.182 323.991 455.459 324.947 460.207 324.947C478.56 324.947 484.251 315.383 484.251 307.412C484.251 298.163 474.761 293.069 465.898 291.792C464.634 291.792 461.149 290.836 461.149 289.236C461.149 287.965 462.098 286.369 466.532 286.369C470.009 286.369 476.022 287.647 479.499 289.236L478.557 275.85C473.809 274.257 467.162 272.982 462.098 272.982C451.659 272.982 442.481 279.361 442.481 289.558C442.481 297.529 448.178 301.674 457.357 303.589C461.149 303.911 464.634 305.501 464.634 307.415C464.634 309.964 462.098 310.604 459.57 310.604C457.357 310.604 451.659 311.238 442.169 307.415V321.443V321.443ZM386.479 303.589C380.466 308.049 375.718 309.005 367.807 309.005C355.788 309.005 345.027 299.122 345.027 288.925C345.027 277.764 351.04 267.245 367.807 267.245C375.406 267.245 381.73 268.522 386.479 272.982V255.769C380.466 252.258 372.24 251.302 364.963 251.302C343.126 251.302 326.359 266.923 326.359 288.287C326.359 309.323 344.712 325.266 366.227 325.266C373.504 325.266 380.466 323.666 386.479 320.165V303.589ZM416.854 285.42C422.867 285.735 420.969 290.517 416.22 290.517C406.73 290.517 391.542 293.706 389.641 306.781C385.526 329.095 414.007 327.184 421.596 322.402L422.23 323.673H439.319V289.24C439.319 272.982 413.37 269.793 395.017 275.853L392.488 289.562C400.402 285.735 411.479 285.098 416.854 285.42V285.42ZM504.502 278.086V252.262H486.786V324.628H504.502V296.255C504.502 286.691 519.056 286.373 519.056 296.255V324.628H537.094V291.795C537.094 277.127 520.005 266.923 504.502 278.086V278.086Z" fill="#2D78BB"/>
<path fill-rule="evenodd" clip-rule="evenodd" d="M234.273 291.473C235.222 286.691 239.022 285.102 242.503 285.102C245.984 285.102 250.413 286.694 250.413 291.473H234.273V291.473ZM420.968 301.678V307.737C420.968 314.753 407.679 316.342 407.679 309.33C407.679 302.955 417.484 301.356 420.968 301.678V301.678Z" fill="white"/>
</svg>
