<svg width="321" height="350" viewBox="0 0 321 350" fill="none" xmlns="http://www.w3.org/2000/svg">
<path d="M21.8648 0.0759277C9.8949 0.0759277 0 9.77362 0 21.7264V328.263C0 340.224 9.8949 349.913 21.8648 349.913H298.39C310.378 349.913 320.041 340.224 320.041 328.263V21.7264C320.041 9.77362 310.378 0.0759277 298.39 0.0759277H21.8648Z" fill="white"/>
<path d="M21.7776 0C9.80773 0 0.0585938 9.73199 0.0585938 21.6848V328.315C0.0585938 340.277 9.80773 350 21.7776 350H298.398C310.385 350 320.125 340.277 320.125 328.315H318.71C318.71 339.496 309.604 348.602 298.398 348.602H21.7776C10.5966 348.602 1.48195 339.496 1.48195 328.315V21.6848C1.48195 10.5123 10.5966 1.39763 21.7776 1.39763H298.398C309.604 1.39763 318.71 10.5123 318.71 21.6848V328.315H320.125V21.6848C320.125 9.73199 310.385 0 298.398 0H21.7776Z" fill="#0023A0"/>
<path d="M319.409 223.361V328.312C319.409 339.905 310.011 349.294 298.401 349.294H21.7812C10.1715 349.294 0.791016 339.905 0.791016 328.312V223.361H319.409" fill="#0023A0"/>
<path d="M224.16 291.866V322.28H213.725V291.866L186.63 247.116L197.074 244.896L219.041 282.323L240.469 245.684H252.019L224.16 291.866V291.866ZM157.767 257.778L145.54 290.095H170.088L157.767 257.778ZM182.624 323.064L173.629 299.312H142.007L133.338 322.283H122.774L152.759 245.345H163.203L192.733 320.843L182.624 323.064ZM97.7953 254.91H88.4749V281.979H97.1179C107.579 281.979 113.787 277.649 113.787 268.114C113.787 259.343 108.248 254.91 97.7953 254.91V254.91ZM96.5692 291.205H88.4749V322.279H78.0312V245.684H98.3612C114.567 245.684 124.342 253.563 124.342 267.763C124.342 283.428 113.238 291.205 96.5692 291.205" fill="white"/>
<path d="M200.895 29.8218L159.446 141.615L155.433 118.919C145.127 91.0947 125.105 63.3736 99.0391 51.5408L134.263 193.508L179.099 193.474L245.756 29.8218H200.895Z" fill="#0023A0"/>
<path d="M122.88 29.7722H56.5311L55.7852 34.0852C108.921 47.6585 140.861 79.5297 155.454 118.929L142.07 43.6028C139.523 33.2277 132.106 30.1238 122.88 29.7722Z" fill="#FFA000"/>
</svg>
