<svg width="589" height="350" viewBox="0 0 589 350" fill="none" xmlns="http://www.w3.org/2000/svg">
<path fill-rule="evenodd" clip-rule="evenodd" d="M544.938 0C578.131 0 588.441 24.3506 588.441 41.56V308.443C588.441 325 578.127 350 544.938 350H43.5067C10.635 350 0 325 0 308.443V41.56C0 24.3506 10.635 0 43.5067 0H544.938Z" fill="white"/>
<path d="M140.214 140.21C139.68 136.472 143.417 133.268 146.621 133.268C156.233 133.268 165.845 133.268 175.456 133.268C180.796 126.326 186.67 120.452 193.612 115.647C174.922 115.647 155.699 115.113 137.01 115.647C123.126 119.385 115.117 133.802 114.049 147.151C115.117 158.365 129 159.433 137.544 162.637C137.544 166.375 137.01 170.113 132.738 170.647C115.65 171.181 98.0291 170.647 80.9417 171.181C78.2718 177.588 76.1359 183.462 74 189.87C93.2233 189.87 112.981 190.938 132.204 189.336C143.417 188.802 154.631 182.394 159.437 171.715C162.641 164.773 165.311 156.763 160.505 149.821C155.699 143.948 146.087 145.016 140.214 140.21ZM275.311 133.802C284.388 133.268 294 133.802 303.612 133.268C308.951 126.326 315.893 120.452 322.835 115.647C307.349 115.647 291.33 115.647 275.845 115.647C265.165 115.647 255.553 123.656 252.35 133.268C245.408 151.957 237.932 171.181 231.524 189.87C239.534 190.404 247.01 191.472 255.019 189.87C258.757 180.258 261.961 170.113 266.233 160.501C273.175 160.501 280.116 160.501 286.524 160.501C288.66 155.695 290.262 150.355 292.398 145.016C285.99 145.016 279.049 145.016 272.641 145.016C272.641 141.812 273.709 137.54 275.311 133.802ZM437.641 115.113C441.913 119.918 444.049 126.326 444.583 132.734C448.854 132.734 453.66 132.734 457.932 132.734C450.99 151.423 444.049 170.647 436.573 189.336C444.049 189.336 450.99 189.336 458.466 189.336C465.408 170.647 472.883 151.423 479.291 132.734C488.369 132.734 497.981 132.734 507.058 132.734C509.194 126.86 511.33 120.986 514 115.113C488.369 115.113 462.738 115.647 437.641 115.113ZM232.592 116.715C219.243 110.841 203.223 115.113 192.544 123.656C180.262 133.268 172.786 147.685 169.049 162.103C167.447 170.647 167.447 180.792 175.456 186.666C182.932 192.54 192.544 191.472 201.621 190.938C210.699 188.268 218.709 183.996 225.116 176.52C234.728 164.773 241.67 150.889 243.272 135.938C242.738 128.996 240.068 120.452 232.592 116.715ZM217.107 149.821C213.903 157.831 211.233 166.375 204.825 172.249C201.087 175.452 195.748 174.385 191.476 173.317C189.34 162.103 194.146 151.423 199.485 141.812C203.223 134.87 211.767 127.394 219.243 132.2C221.913 133.802 219.243 143.948 217.107 149.821ZM436.573 124.19C433.369 118.851 426.961 116.181 421.087 115.647C409.874 115.113 398.66 115.647 387.447 115.113C377.835 140.21 368.757 164.773 359.146 189.87C367.155 189.87 375.165 189.87 383.175 189.87C386.379 181.326 389.583 172.783 393.32 164.773C395.99 173.317 398.126 181.86 399.728 189.87C408.272 190.404 416.282 190.404 424.825 189.87C422.689 179.19 418.951 168.511 415.214 158.365C422.155 155.161 429.631 151.423 433.369 144.482C437.641 138.608 438.175 131.132 436.573 124.19ZM410.408 145.55C406.67 148.753 401.33 148.219 396.524 148.753C398.66 142.88 400.796 136.472 402.932 130.598C406.67 130.598 410.408 130.598 414.146 131.666C416.816 136.472 414.146 142.346 410.408 145.55ZM360.748 116.715C347.398 110.841 331.379 115.113 320.699 123.656C308.417 133.268 300.942 147.685 297.204 162.103C295.602 170.647 295.602 180.792 303.612 186.666C311.087 192.54 320.699 191.472 329.777 190.938C338.854 188.268 346.864 183.996 353.272 176.52C362.883 164.773 369.825 150.889 371.427 135.938C370.893 128.996 368.223 119.918 360.748 116.715ZM345.262 149.821C342.058 157.831 339.388 166.375 332.981 172.249C329.243 175.452 323.903 174.385 319.631 173.317C317.495 162.103 322.835 151.423 327.641 141.812C331.379 134.87 339.922 127.394 347.398 132.2C350.068 133.802 347.398 143.948 345.262 149.821Z" fill="#EB7F23"/>
<path fill-rule="evenodd" clip-rule="evenodd" d="M110.848 201.084C105.508 195.744 96.4307 198.948 89.489 198.414C84.6831 210.162 80.4113 222.443 75.6055 234.725C82.5472 234.725 88.955 234.725 95.8967 234.725C103.906 231.521 111.382 222.443 104.974 214.434C109.246 211.23 114.052 206.424 110.848 201.084ZM98.0327 226.715C94.8288 229.919 89.489 229.385 85.2171 229.385C86.8191 225.647 87.887 221.909 89.489 218.172C92.6928 218.706 96.4307 219.239 99.6346 219.773C99.1006 222.443 99.1006 225.113 98.0327 226.715ZM92.6928 212.298C93.7608 209.094 94.8288 206.424 95.8967 203.22C98.5666 203.754 100.703 203.754 103.372 204.288C103.372 204.822 103.906 206.424 103.906 207.492C100.703 210.696 96.9647 212.832 92.6928 212.298ZM330.314 204.822C330.848 205.356 331.916 206.958 332.45 208.026C334.052 205.356 337.79 200.55 332.984 199.482C314.829 192.006 294.004 209.094 295.605 227.249C295.605 231.521 299.343 234.725 303.081 235.793C310.023 238.463 316.965 235.793 323.372 234.191C325.508 228.317 328.178 221.909 329.78 215.502C323.372 214.968 314.295 211.764 311.625 219.773C314.295 220.307 316.965 220.307 319.635 220.841C318.567 223.511 317.499 226.715 316.965 229.385C312.159 230.987 305.217 230.987 303.615 225.647C302.013 211.764 317.499 199.482 330.314 204.822ZM278.518 224.045C276.916 215.502 275.848 206.958 273.712 198.414C269.974 198.414 266.771 198.948 263.033 198.948C258.761 211.23 253.421 222.977 249.683 235.259C251.819 235.259 253.955 235.259 256.091 235.259C259.829 226.181 263.033 217.104 266.771 208.026C268.372 217.104 269.44 226.181 271.576 235.259C274.78 235.259 277.984 235.259 281.188 234.725C284.926 222.443 290.266 210.696 294.537 198.414C292.402 198.414 289.732 198.414 287.596 198.414C284.926 206.958 281.722 215.502 278.518 224.045ZM244.343 198.414C240.071 210.696 235.266 222.977 230.46 234.725C233.13 234.725 235.8 234.725 237.936 234.725C242.741 222.443 247.013 210.162 251.819 197.88C249.683 198.414 247.013 198.414 244.343 198.414ZM108.712 235.259C111.382 235.259 114.052 235.259 116.188 235.259C117.79 232.589 119.926 229.919 121.528 227.249C126.334 227.249 131.673 227.249 136.479 227.249C136.479 229.919 136.479 232.589 135.945 235.259C138.615 235.259 141.285 235.259 143.955 235.259C144.489 222.977 143.955 210.696 144.489 198.414C141.285 198.414 138.081 198.414 134.877 198.414C126.334 210.696 117.256 222.443 108.712 235.259ZM136.479 220.841C133.275 220.841 129.538 220.841 126.334 220.841C129.538 215.502 133.275 210.696 137.547 206.424C137.547 211.23 137.013 216.036 136.479 220.841ZM236.334 198.414C233.664 198.414 230.46 197.88 227.79 198.948C221.916 203.22 217.11 209.094 211.237 213.9C212.305 208.56 214.44 203.22 216.576 198.414C213.906 198.414 211.237 198.414 209.101 198.414C204.829 209.628 201.091 220.841 196.285 232.055C196.285 233.123 195.751 234.725 195.751 235.259C198.421 235.259 200.557 235.259 203.227 235.259C205.363 229.385 207.499 223.511 210.169 217.638C212.304 223.511 213.906 229.385 215.508 235.793C218.712 235.793 221.382 235.793 224.586 235.793C222.984 229.385 220.848 222.443 218.712 216.036C224.052 209.628 230.994 204.822 236.334 198.414ZM190.411 198.414C187.207 206.958 184.004 215.502 180.8 224.045C179.198 215.502 177.596 206.958 176.528 198.948C173.324 198.948 169.586 197.88 166.382 198.948C160.508 210.696 157.304 222.977 151.965 235.259C154.635 235.259 156.771 235.259 159.44 234.725C162.644 225.647 166.382 216.57 169.052 207.492C171.188 216.57 172.256 225.647 174.392 234.725C177.596 234.725 180.8 234.725 184.004 234.725C188.809 222.443 193.081 210.162 197.887 198.414C195.217 198.414 192.547 198.414 190.411 198.414Z" fill="#383A41"/>
</svg>
